<?xml version="1.0" standalone="no"?>
<!DOCTYPE svg PUBLIC "-//W3C//DTD SVG 20010904//EN"
 "http://www.w3.org/TR/2001/REC-SVG-20010904/DTD/svg10.dtd">
<svg version="1.0" xmlns="http://www.w3.org/2000/svg"
 width="512.000000pt" height="512.000000pt" viewBox="0 0 512.000000 512.000000"
 preserveAspectRatio="xMidYMid meet">
<metadata>
Created by potrace 1.14, written by Peter Selinger 2001-2017
</metadata>
<g transform="translate(0.000000,512.000000) scale(0.100000,-0.100000)"
fill="#000000" stroke="none">
<path d="M0 3013 l0 -2108 42 50 c157 187 266 276 467 385 74 40 151 83 172
97 20 13 43 25 51 27 7 1 19 5 25 9 9 6 13 0 13 -20 0 -18 -3 -23 -8 -15 -7
10 -20 8 -60 -9 -28 -12 -50 -25 -47 -29 3 -4 -2 -7 -10 -6 -7 0 -14 -2 -14
-6 -1 -5 1 -7 2 -5 2 1 11 -4 19 -11 13 -10 17 -10 20 0 4 10 11 11 36 1 18
-6 32 -8 32 -4 0 8 7 10 55 14 17 1 29 5 28 10 -2 4 -3 14 -3 23 0 11 -6 15
-18 12 -20 -6 -23 15 -7 41 5 10 4 12 -3 7 -7 -4 -12 -2 -12 3 0 6 3 11 8 11
4 0 25 16 47 35 22 19 44 35 49 35 5 0 15 8 23 17 8 10 11 12 8 5 -6 -11 -1
-11 21 1 23 11 38 12 74 3 41 -10 54 -8 136 21 109 38 174 70 356 175 l138 79
-22 42 -22 42 -6 -30 c-5 -27 -6 -25 -24 30 -18 59 -37 82 -156 188 -29 26
-160 107 -173 107 -5 0 -31 16 -58 35 -39 27 -55 33 -78 29 -21 -4 -40 0 -64
14 -18 12 -52 23 -74 24 -30 2 -39 6 -32 14 22 26 148 -11 133 -39 -5 -9 -3
-9 7 1 7 6 30 12 51 12 44 0 45 -4 -24 121 -57 103 -102 234 -129 372 -29 149
-28 408 2 532 12 50 22 97 23 105 1 8 9 31 18 51 8 20 19 47 23 60 9 28 61
135 94 194 42 74 134 189 212 265 79 78 127 120 136 120 2 0 19 11 37 25 18
14 36 22 39 18 4 -3 7 3 7 14 0 13 -23 37 -69 71 -126 95 -181 176 -189 282
-4 58 -1 76 22 126 32 69 78 120 160 176 228 157 635 248 1106 248 630 0 1123
-161 1252 -410 30 -59 32 -166 4 -225 -26 -52 -138 -163 -198 -195 l-46 -24
24 -48 c32 -64 30 -70 -7 -20 -17 23 -34 42 -38 42 -4 0 -35 25 -69 55 -102
93 -246 144 -522 184 -167 25 -338 55 -425 76 -238 57 -457 33 -620 -68 -45
-27 -131 -88 -150 -104 -69 -60 -101 -154 -109 -318 -5 -85 4 -186 14 -180 4
3 13 35 20 72 6 37 14 71 17 77 11 16 22 -26 22 -84 1 -80 28 -233 57 -327 24
-76 118 -277 147 -312 7 -9 21 -32 32 -52 22 -43 57 -62 156 -85 39 -9 73 -22
75 -29 15 -39 -63 -85 -119 -71 -33 8 -85 63 -104 108 -8 21 -23 40 -34 43
-10 4 -19 10 -19 15 0 5 -16 24 -35 43 -19 19 -35 41 -35 51 0 9 -3 16 -8 16
-21 0 -127 257 -146 355 -3 17 -7 51 -8 77 -1 26 -6 45 -10 42 -8 -5 -4 -98 8
-169 2 -16 7 -50 10 -75 7 -61 99 -245 130 -259 14 -6 24 -19 24 -31 0 -26 23
-72 45 -90 32 -26 65 -117 80 -221 17 -115 52 -243 84 -309 11 -24 21 -48 21
-53 0 -6 15 -23 32 -39 82 -72 139 -133 129 -136 -6 -2 -11 -10 -11 -18 0 -9
-4 -12 -10 -9 -5 3 -10 0 -10 -7 0 -7 -9 -24 -20 -38 -11 -14 -20 -41 -20 -61
0 -20 -7 -50 -15 -65 -8 -16 -15 -40 -15 -54 0 -36 -58 -208 -86 -257 -14 -24
-30 -44 -37 -45 -7 0 -17 -2 -23 -2 -6 -1 -18 -7 -25 -13 -8 -7 -24 -10 -34
-8 -11 2 -23 4 -27 4 -4 1 -20 19 -34 41 -15 22 -31 40 -36 40 -4 0 -20 -19
-34 -43 -14 -23 -43 -55 -65 -71 -21 -16 -36 -33 -33 -38 3 -4 -6 -13 -20 -20
-14 -6 -26 -19 -26 -29 0 -10 -9 -20 -20 -24 -11 -3 -28 -17 -39 -31 -10 -13
-35 -31 -55 -39 -20 -9 -36 -22 -36 -29 0 -8 -21 -27 -47 -42 -27 -15 -53 -34
-58 -41 -6 -8 -18 -15 -27 -16 -9 -2 -22 -8 -29 -14 -8 -6 -30 -18 -49 -26
-41 -17 -103 -71 -93 -80 3 -4 -1 -7 -9 -7 -21 0 -30 -37 -11 -44 8 -3 11 -10
8 -16 -3 -5 0 -7 8 -4 18 6 29 -30 14 -45 -8 -8 -7 -11 2 -11 7 0 9 -5 5 -12
-5 -8 0 -7 11 2 11 9 16 10 11 3 -4 -7 -2 -13 3 -13 6 0 10 -3 10 -7 -3 -21 2
-33 15 -33 8 0 23 -20 34 -44 12 -24 32 -53 46 -64 14 -10 23 -22 19 -25 -3
-4 3 -10 13 -14 21 -8 64 -51 64 -64 0 -5 9 -9 19 -9 11 0 26 -6 33 -13 7 -8
18 -12 25 -10 6 2 15 -6 18 -19 4 -13 11 -25 16 -28 4 -3 2 -17 -4 -30 -12
-23 -11 -26 13 -36 l25 -12 -26 -10 c-15 -6 -36 -8 -48 -5 -13 3 -29 -1 -41
-12 -11 -10 -20 -16 -20 -13 0 3 -18 2 -40 -3 -52 -12 -74 -2 -162 69 -103 84
-115 99 -100 122 21 34 14 62 -36 145 -26 44 -55 100 -66 125 -10 25 -22 52
-26 61 -4 8 -4 23 2 32 7 13 3 23 -20 42 -16 13 -39 47 -51 75 -12 27 -25 50
-30 50 -4 0 -7 -22 -7 -49 1 -27 4 -47 9 -44 4 2 8 -7 9 -21 0 -14 1 -32 2
-38 1 -7 7 -19 14 -27 8 -8 11 -22 9 -33 -3 -10 -2 -16 2 -14 4 3 22 -41 40
-97 62 -194 88 -245 163 -319 45 -44 91 -78 135 -99 63 -30 73 -32 187 -32
125 -1 221 8 261 23 13 5 25 6 28 3 3 -2 14 0 24 6 15 9 13 10 -16 11 -27 0
-32 3 -23 12 9 9 20 9 47 -1 20 -7 49 -9 70 -5 26 5 35 3 35 -7 0 -12 2 -12 9
0 5 7 13 11 19 7 6 -3 12 0 15 6 3 10 9 10 23 2 11 -6 17 -13 14 -16 -3 -3 1
-13 9 -22 13 -16 12 -16 -13 -5 -20 9 -23 15 -14 22 9 6 8 7 -5 3 -10 -3 -20
-6 -22 -6 -2 0 -1 -9 2 -20 4 -15 0 -20 -16 -20 -11 0 -21 4 -21 10 0 5 7 6
17 3 11 -4 14 -3 9 5 -15 25 -42 11 -37 -20 0 -4 -7 -4 -16 -1 -12 5 -15 2
-11 -9 4 -8 0 -15 -8 -17 -38 -5 -90 1 -100 12 -4 4 -12 7 -18 7 -6 0 0 -7 12
-16 12 -8 22 -20 22 -26 0 -6 -7 -5 -17 3 -10 7 -2 -4 17 -24 19 -21 36 -33
38 -27 2 5 8 8 12 5 5 -3 7 -12 4 -19 -6 -15 51 -63 68 -58 6 2 8 -4 5 -11 -3
-8 -1 -19 5 -25 6 -6 7 -15 3 -22 -9 -15 -48 19 -41 37 3 7 1 15 -4 18 -6 4
-10 2 -10 -3 0 -6 -7 -13 -16 -16 -9 -3 -12 -2 -9 5 4 5 1 17 -7 26 -7 9 -12
18 -10 20 6 9 1 23 -9 23 -8 0 -8 -5 1 -15 12 -15 4 -20 -22 -16 -4 0 -4 -7
-1 -17 6 -15 5 -15 -10 -3 -9 7 -14 17 -11 22 3 5 0 8 -8 7 -7 -2 -12 3 -10
10 2 10 -2 10 -17 3 -10 -6 -21 -7 -25 -4 -10 11 -7 20 9 21 8 1 22 3 30 4 8
1 15 5 15 10 0 10 -11 10 -30 -2 -9 -6 -20 -5 -29 3 -12 9 -13 9 -7 0 4 -7 3
-13 -1 -13 -5 0 -15 6 -23 13 -8 6 -6 2 4 -10 23 -27 7 -31 -17 -5 -10 11 -15
28 -12 44 3 15 1 29 -5 33 -6 4 -7 -1 -3 -12 5 -14 0 -13 -23 7 l-29 25 30
-34 c17 -19 23 -32 14 -28 -9 3 -16 0 -16 -8 0 -8 3 -14 6 -13 19 2 24 -4 11
-13 -13 -9 -12 -10 2 -5 24 7 30 -7 14 -30 -11 -14 -17 -16 -28 -7 -11 10 -14
8 -15 -10 -2 -15 0 -18 6 -8 7 10 10 10 16 1 5 -8 13 -3 26 17 10 15 19 25 20
21 3 -19 5 -24 17 -46 13 -23 14 -22 -28 -27 -8 -1 -21 3 -27 8 -9 6 -13 5
-13 -2 0 -7 -4 -9 -10 -6 -6 3 -7 -1 -3 -10 5 -13 7 -14 14 -3 7 11 11 10 18
-2 6 -8 13 -11 17 -7 4 4 13 2 21 -5 11 -8 12 -7 7 6 -6 14 5 21 29 17 4 0 7
4 7 9 0 6 -4 10 -9 10 -5 0 -11 7 -15 15 -4 11 1 14 17 11 16 -2 22 -10 22
-29 1 -14 -3 -23 -7 -21 -4 3 -8 0 -8 -5 0 -6 3 -11 8 -12 44 -5 70 -4 66 3
-3 5 -9 6 -14 3 -10 -6 -43 25 -35 33 3 4 10 0 15 -8 6 -8 10 -11 10 -6 0 6
-12 23 -27 38 -15 15 -22 28 -16 28 6 0 23 -14 37 -31 14 -17 26 -25 26 -19 0
6 5 8 12 4 8 -5 9 -2 5 9 -3 10 -2 17 2 17 16 0 20 -29 6 -44 -13 -12 -12 -16
1 -26 12 -11 13 -10 8 6 -7 18 -6 18 15 -1 12 -11 18 -21 12 -23 -6 -2 -9 -8
-5 -13 3 -5 0 -9 -7 -9 -8 0 -8 -4 1 -15 9 -11 16 -12 20 -5 4 6 16 0 30 -15
22 -23 22 -25 5 -19 -19 7 -19 6 -4 -12 17 -19 15 -49 -2 -38 -5 3 -9 0 -9 -5
0 -6 -9 -11 -20 -11 -11 0 -20 5 -20 10 0 6 -5 10 -11 10 -6 0 -8 -7 -5 -16 6
-15 4 -15 -10 -3 -10 8 -12 15 -5 17 6 2 9 8 6 13 -4 5 1 6 9 3 24 -9 19 4 -5
17 -15 8 -19 8 -15 0 4 -6 0 -14 -9 -17 -12 -5 -13 -10 -4 -20 6 -7 8 -18 5
-23 -4 -5 -2 -12 3 -16 6 -3 8 -12 5 -20 -4 -8 -10 -12 -15 -9 -5 3 -7 9 -4
13 2 5 -7 19 -21 31 -26 25 -54 35 -54 19 0 -5 5 -9 10 -9 6 0 10 -5 10 -11 0
-5 -6 -7 -12 -3 -9 5 -9 3 1 -9 7 -9 17 -14 22 -11 5 3 9 0 9 -7 0 -6 -8 -9
-20 -6 -11 3 -18 2 -15 -3 7 -11 -24 -22 -38 -13 -6 4 -1 -8 11 -25 13 -17 28
-35 35 -38 7 -4 4 2 -5 13 -10 11 -18 26 -18 33 0 9 5 7 16 -6 15 -19 15 -19
11 2 -5 24 11 26 36 6 12 -10 16 -10 20 0 7 20 14 7 20 -37 l6 -40 -19 23
c-10 12 -21 22 -25 22 -4 0 -2 -7 5 -15 10 -12 10 -15 -1 -15 -10 0 -10 -3 -1
-12 17 -17 15 -33 -3 -18 -10 8 -13 24 -9 53 4 35 3 38 -11 27 -8 -7 -15 -18
-14 -24 4 -36 -2 -38 -31 -11 -16 16 -32 37 -36 47 -3 10 -10 18 -16 18 -6 0
-6 -6 2 -15 7 -8 10 -22 6 -30 -3 -10 -2 -14 5 -9 11 7 69 -43 69 -60 0 -5
-16 5 -35 24 -19 19 -35 30 -35 25 0 -5 -12 2 -26 16 -18 16 -25 19 -24 9 5
-32 -1 -38 -35 -35 -20 1 -32 -2 -28 -8 3 -5 0 -13 -7 -17 -9 -5 -9 -9 -1 -14
6 -4 11 -2 11 5 0 9 3 9 14 -1 8 -6 12 -18 9 -26 -3 -8 0 -14 6 -14 6 0 11 -4
11 -9 0 -5 -8 -8 -17 -7 -12 1 -17 -6 -16 -17 1 -13 -4 -17 -15 -12 -13 5 -13
2 2 -14 10 -11 15 -25 11 -31 -6 -9 -2 -9 13 -1 12 6 23 7 26 2 7 -11 -43 -33
-57 -24 -19 12 -37 12 -37 2 0 -6 -4 -7 -10 -4 -6 4 -7 -1 -3 -11 4 -12 8 -14
11 -6 3 10 7 10 18 1 12 -10 13 -8 8 7 -7 18 -6 18 12 3 25 -21 57 -21 49 0
-5 15 -4 15 7 0 7 -9 21 -16 31 -16 19 0 23 12 7 22 -5 3 -10 1 -10 -5 0 -6
-4 -9 -9 -6 -5 3 -8 17 -8 31 l0 26 27 -33 c24 -28 34 -33 74 -34 27 0 46 4
46 10 0 8 2 8 8 0 14 -21 40 -12 39 15 0 14 -2 20 -4 13 -4 -10 -9 -9 -24 4
-24 22 -25 41 -1 23 15 -13 16 -12 3 4 -8 9 -10 21 -6 25 4 4 10 2 12 -5 2 -6
12 -21 22 -32 11 -12 17 -30 14 -40 -4 -15 1 -18 22 -18 26 0 26 0 7 21 -11
11 -19 32 -17 46 2 27 -13 65 -23 56 -7 -8 -62 44 -62 58 0 5 11 -1 25 -14 31
-29 56 -35 47 -12 -5 15 -4 15 11 3 9 -7 14 -17 11 -23 -3 -5 2 -20 11 -35 9
-14 12 -23 6 -19 -14 9 -6 -51 10 -70 10 -12 14 -12 20 -2 5 7 9 8 9 2 0 -6
21 -11 50 -11 50 -1 59 4 41 22 -6 6 -4 15 5 23 15 14 18 7 15 -30 -4 -31 36
-22 44 9 l7 28 14 -27 15 -28 510 0 c402 0 508 3 503 13 -6 9 -4 9 7 1 8 -6
46 -12 86 -13 59 -1 74 1 83 16 11 17 11 17 6 1 -5 -17 5 -18 125 -18 101 0
129 3 123 12 -6 11 -4 11 7 0 20 -19 155 -16 163 4 4 10 2 13 -6 8 -7 -5 -9 0
-6 14 4 12 3 20 -2 17 -10 -6 -21 46 -15 74 2 12 -1 21 -6 21 -6 0 -8 4 -5 9
3 5 -1 12 -10 15 -12 4 -15 2 -11 -9 4 -8 2 -17 -3 -20 -6 -4 -10 7 -10 24 0
23 4 29 15 25 8 -4 15 -1 15 6 0 6 -4 9 -9 5 -5 -3 -12 -1 -16 5 -3 5 0 10 7
10 9 0 10 2 2 8 -7 4 -12 20 -12 36 0 15 -5 32 -13 36 -7 5 -14 16 -15 24 -1
9 2 14 7 10 5 -3 6 -10 3 -16 -5 -7 -2 -8 6 -3 10 6 8 12 -9 27 -14 11 -18 18
-10 18 11 0 11 2 -1 10 -13 9 -13 10 0 10 13 0 13 1 0 10 -8 5 -11 10 -6 10 5
0 1 9 -8 19 -10 11 -24 17 -32 14 -9 -3 -14 1 -14 11 0 14 4 15 21 5 16 -8 24
-8 33 2 8 9 8 10 -1 5 -8 -4 -13 -1 -13 8 0 11 -8 15 -29 12 -21 -2 -28 0 -24
10 3 8 9 11 14 8 11 -6 7 25 -6 46 -8 13 -7 13 8 1 10 -8 17 -9 17 -3 0 6 -4
13 -10 17 -5 3 -7 12 -4 20 4 8 10 12 15 9 5 -3 6 2 2 11 -4 11 -8 13 -13 5
-5 -7 -14 -4 -31 10 -23 20 -23 21 -1 10 16 -8 22 -8 22 0 0 6 6 8 13 4 6 -4
3 2 -7 14 -14 16 -22 19 -32 11 -8 -7 -14 -7 -19 1 -3 5 -1 10 5 10 6 0 9 4 6
9 -8 13 22 7 35 -6 6 -6 18 -9 25 -6 9 3 0 16 -28 40 -28 23 -43 30 -48 22 -6
-8 -9 -8 -14 0 -7 11 5 15 32 12 11 -2 11 2 1 21 -22 39 -20 49 9 46 19 -2 26
-8 24 -20 -1 -9 3 -20 9 -24 9 -5 10 -2 6 9 -7 20 -3 21 23 7 10 -5 26 -7 34
-4 13 5 13 8 1 20 -20 21 -41 18 -24 -3 13 -15 12 -15 -6 -5 -11 5 -30 20 -42
31 -22 21 -39 28 -29 13 2 -4 -4 -9 -15 -9 -10 -1 -19 2 -19 8 0 5 3 8 8 7 4
-1 17 3 30 10 18 11 23 10 28 -1 2 -7 10 -14 17 -14 7 0 20 -4 30 -8 12 -5 17
-2 17 10 0 15 2 16 17 4 14 -12 16 -12 8 1 -5 8 -10 23 -10 32 -1 14 1 15 12
6 21 -17 25 -4 9 27 -12 23 -16 26 -21 13 -10 -25 -36 -30 -56 -12 -23 21 -24
30 -5 37 11 4 13 1 9 -10 -4 -11 -2 -14 5 -9 7 4 12 2 12 -3 0 -6 5 -11 11
-11 8 0 7 5 -1 15 -18 21 -8 28 23 16 17 -7 28 -7 32 -1 4 6 1 10 -4 10 -6 0
-11 6 -11 14 0 8 -4 18 -10 21 -5 3 -7 0 -4 -8 3 -8 1 -18 -5 -22 -6 -3 -11 1
-11 10 0 10 -5 13 -12 9 -7 -5 -25 -7 -41 -6 -20 2 -26 -1 -21 -9 5 -8 2 -10
-9 -6 -9 3 -18 -1 -21 -10 -4 -9 -9 -13 -13 -10 -3 4 -12 2 -20 -4 -11 -10
-11 -16 2 -35 9 -14 11 -24 5 -24 -15 0 -42 68 -33 83 4 7 0 6 -10 -2 -10 -8
-20 -11 -24 -7 -3 3 -2 6 4 6 6 0 13 9 16 19 4 15 14 19 48 19 24 0 51 2 59 5
8 3 46 13 83 23 88 22 121 52 136 122 6 29 11 62 11 72 0 10 10 26 22 34 17
12 19 16 6 16 -9 0 -19 -6 -21 -12 -4 -10 -6 -10 -6 -1 -1 6 4 15 9 18 17 10
11 25 -7 18 -17 -6 -17 -5 0 15 14 15 16 25 9 38 -6 11 -11 13 -16 5 -4 -6 -2
-11 4 -11 6 0 8 -5 4 -11 -4 -8 -9 -7 -15 2 -5 8 -2 20 6 29 17 18 13 56 -5
52 -20 -5 -31 21 -16 38 8 8 13 26 11 40 -3 34 -3 34 -22 19 -17 -13 -17 -13
0 7 9 11 14 24 10 27 -3 4 -1 7 5 7 7 0 6 9 -3 27 -8 15 -12 30 -9 35 3 4 0 8
-6 8 -6 0 -9 4 -5 9 3 5 0 13 -6 17 -8 4 -9 3 -5 -4 4 -7 2 -12 -3 -12 -14 0
-14 6 0 28 9 14 6 25 -14 54 -13 21 -27 34 -31 31 -9 -9 -8 -25 1 -20 5 3 16
-5 25 -17 13 -18 13 -23 3 -23 -8 0 -13 5 -12 10 1 5 -4 12 -12 15 -11 4 -12
-1 -6 -19 20 -55 -2 -372 -30 -434 -31 -70 -37 -102 -24 -144 9 -32 9 -44 0
-55 -13 -15 -86 -33 -151 -38 -19 -1 -40 -6 -46 -10 -17 -12 -44 2 -44 23 0
19 -30 32 -61 26 -10 -2 -34 -15 -55 -29 -25 -17 -60 -28 -97 -33 -31 -3 -64
-13 -72 -21 -8 -9 -15 -11 -15 -5 0 6 -9 11 -20 11 -26 0 -34 35 -27 108 3 31
3 75 0 98 -6 49 -30 61 -74 38 -40 -20 -56 -18 -75 11 -20 30 -26 105 -11 124
9 11 9 13 0 8 -8 -5 -10 8 -8 46 3 48 -12 145 -25 157 -22 21 -30 84 -43 335
-7 154 -12 288 -9 298 3 12 14 17 37 17 18 0 60 3 94 6 60 7 61 7 44 27 -15
16 -18 36 -17 126 1 58 5 126 8 151 3 25 8 70 11 100 3 30 10 69 16 86 11 35
23 40 179 74 125 27 168 52 199 113 30 61 21 102 -28 131 -27 15 -57 20 -164
23 -72 2 -137 9 -144 15 -15 12 -3 40 18 44 56 12 92 24 106 36 14 11 16 11 9
-1 -7 -10 -5 -11 8 -4 10 6 55 3 125 -7 126 -19 135 -18 201 15 56 28 92 86
105 165 3 25 15 92 26 150 26 140 29 315 6 392 -18 59 -71 148 -88 148 -13 0
-11 -12 6 -34 8 -10 22 -41 31 -68 14 -44 14 -53 0 -101 -8 -28 -17 -75 -20
-104 -13 -133 -130 -256 -271 -284 -52 -10 -61 -15 -48 -24 11 -8 16 -30 17
-76 2 -98 -42 -149 -130 -149 -38 0 -41 5 -17 32 15 17 15 18 -12 18 l-28 0
21 19 c29 24 28 39 -3 53 -14 6 -25 18 -25 27 0 16 51 45 105 60 23 6 30 13
29 32 -1 13 3 27 9 30 22 15 -34 86 -98 122 -35 20 -72 49 -84 65 -45 64 -54
200 -15 244 25 27 107 64 192 84 37 9 75 24 84 32 23 19 154 11 212 -13 47
-20 53 -15 29 21 -10 16 -12 25 -5 21 6 -5 12 -6 12 -4 0 10 -109 86 -160 112
-48 24 -62 27 -125 22 -108 -7 -171 -36 -248 -115 -52 -52 -73 -82 -94 -135
-30 -76 -40 -88 -58 -63 -31 41 -21 149 15 171 5 3 10 29 10 56 0 85 31 135
98 157 37 13 59 6 100 -31 21 -20 27 -20 105 -9 239 35 304 26 396 -53 35 -30
61 -45 72 -42 14 4 21 -3 29 -31 21 -75 40 -230 40 -337 l1 -110 32 -20 c51
-32 69 -78 63 -160 -3 -38 -12 -90 -20 -115 -9 -25 -13 -34 -10 -20 12 55 16
177 6 184 -28 17 -94 -103 -117 -211 -17 -78 -20 -173 -6 -173 15 0 58 61 85
121 14 30 25 48 25 41 2 -25 -72 -157 -104 -187 -20 -20 -34 -44 -38 -68 -3
-21 -33 -94 -66 -163 -34 -68 -76 -168 -95 -221 -19 -54 -48 -125 -64 -158
-30 -59 -27 -81 6 -52 23 20 98 32 107 17 4 -7 11 -8 18 -2 7 5 29 15 50 22
30 9 41 9 53 -1 27 -22 44 -66 51 -136 l8 -67 38 -9 c55 -13 65 -6 65 51 1 26
2 53 3 58 4 23 -3 34 -36 54 -26 16 -43 20 -66 15 -42 -9 -31 9 22 35 46 24
57 20 96 -35 20 -28 36 -71 51 -140 13 -58 30 -107 41 -118 17 -17 18 -17 18
0 -1 69 3 83 24 83 15 0 19 4 15 16 -4 12 -2 15 9 10 8 -3 15 -1 15 3 0 17
-25 19 -42 3 -10 -8 -25 -12 -34 -8 -15 6 -15 8 1 26 11 13 27 18 41 16 32 -6
35 3 20 49 -17 47 -71 75 -112 57 -37 -18 -29 4 13 33 47 31 54 31 93 -1 l31
-27 38 37 c43 42 53 44 100 13 20 -13 48 -31 63 -40 17 -11 46 -55 84 -132 56
-114 84 -155 63 -95 -6 17 -8 37 -5 45 6 16 -26 55 -46 55 -6 0 -3 9 7 20 10
11 22 20 27 20 17 0 38 28 38 50 0 16 -4 20 -16 16 -9 -3 -24 0 -35 8 -19 13
-19 14 2 42 13 17 5 12 -20 -13 -40 -41 -52 -42 -31 -2 12 21 1 26 -17 8 -6
-6 -21 -9 -34 -7 -23 3 -22 4 15 46 35 38 43 42 70 36 17 -3 37 -12 45 -19 10
-10 19 -11 37 -3 20 9 27 8 39 -8 8 -10 13 -24 10 -31 -7 -19 22 -23 39 -4 21
23 20 31 -3 31 -32 0 -35 20 -7 49 18 19 38 28 59 29 23 0 39 9 57 30 31 37
103 60 127 41 10 -9 13 -24 10 -46 -3 -18 -1 -35 4 -38 5 -4 9 2 9 12 0 21 33
53 55 53 7 0 17 5 20 10 3 6 -2 10 -12 10 -10 0 -24 4 -32 9 -23 15 59 102
121 127 l50 21 39 -21 c34 -18 41 -19 49 -6 5 8 8 20 5 27 -2 6 14 32 36 56
l39 45 0 1126 0 1126 -2560 0 -2560 0 0 -2107z m1946 999 c-15 -25 -23 -48
-19 -61 3 -13 1 -21 -8 -21 -7 0 -9 -3 -6 -7 4 -3 2 -12 -4 -19 -6 -7 -14 -25
-19 -41 -8 -22 -8 -19 -4 16 4 24 12 56 18 70 25 57 58 113 62 108 3 -3 -6
-23 -20 -45z m572 -9 c41 -21 55 -24 61 -14 5 8 15 -5 30 -39 27 -63 24 -104
-3 -47 -10 21 -27 42 -37 47 -9 6 -23 16 -31 23 -7 7 -33 23 -58 35 -25 12
-38 22 -30 22 8 0 39 -12 68 -27z m-439 12 c-9 -9 -79 -35 -79 -30 0 3 15 12
33 20 32 14 55 19 46 10z m388 -24 c106 -47 142 -118 130 -253 -5 -54 -31
-107 -45 -93 -3 3 -11 0 -17 -5 -7 -6 -39 -15 -71 -21 -33 -6 -97 -22 -143
-35 -46 -13 -105 -24 -131 -24 -26 0 -64 -7 -85 -16 -48 -20 -75 -13 -113 30
-47 54 -74 138 -70 218 3 63 6 70 43 109 81 83 193 120 350 116 78 -3 111 -8
152 -26z m608 -71 c-3 -5 -12 -10 -18 -10 -7 0 -6 4 3 10 19 12 23 12 15 0z
m-353 -552 c-9 -9 -15 -9 -24 0 -9 9 -7 12 12 12 19 0 21 -3 12 -12z m-147
-79 c11 -17 -1 -21 -15 -4 -8 9 -8 15 -2 15 6 0 14 -5 17 -11z m-85 -289 c7
-9 238 -39 354 -47 70 -4 119 -1 213 16 142 25 215 21 238 -13 38 -53 7 -86
-81 -86 -42 0 -73 -6 -89 -16 -66 -43 -331 -60 -442 -28 -30 9 -53 17 -51 19
8 8 72 14 193 16 112 2 120 3 60 9 -38 3 -144 7 -235 8 l-165 3 -22 27 c-21
25 -31 90 -17 105 6 6 36 -2 44 -13z m-2266 -659 c22 -23 26 -31 13 -31 -8 0
-19 4 -22 10 -3 5 -16 15 -28 22 -20 10 -21 10 -8 -5 19 -24 2 -21 -44 8 -37
23 -39 25 -17 31 12 3 22 13 22 21 0 18 39 -8 84 -56z m216 19 c52 -35 31 -41
-31 -10 -32 17 -43 18 -62 9 -22 -12 -22 -12 -3 10 25 28 42 27 96 -9z m225 9
c63 -30 64 -39 2 -21 -29 8 -62 15 -74 16 -16 1 -19 4 -11 14 15 17 31 15 83
-9z m193 0 c40 -12 66 -39 37 -39 -8 0 -15 4 -15 9 0 5 -19 12 -42 15 -24 3
-49 7 -55 8 -7 1 -13 5 -13 9 0 10 22 18 36 14 7 -2 30 -9 52 -16z m-798 -9
c0 -5 -5 -10 -11 -10 -5 0 -7 5 -4 10 3 6 8 10 11 10 2 0 4 -4 4 -10z m2220 0
c0 -7 6 -7 20 0 16 9 22 6 34 -17 8 -16 15 -22 16 -15 0 26 20 0 20 -26 -1
-38 -31 -75 -60 -70 -23 3 -31 13 -46 53 -7 20 -8 26 -5 65 1 20 21 29 21 10z
m-1314 -286 c12 -49 -7 -160 -53 -297 -25 -76 -52 -144 -59 -151 -7 -8 -10
-17 -6 -21 4 -5 2 -5 -4 -2 -7 4 -14 0 -18 -8 -3 -8 -10 -15 -16 -15 -6 0 -2
12 10 27 16 20 18 28 8 35 -8 4 -17 2 -24 -7 -9 -13 -13 -11 -22 8 -10 20 -11
19 -11 -16 -1 -25 -5 -36 -12 -31 -8 5 -8 1 0 -14 14 -25 14 -43 1 -22 -6 10
-10 11 -10 3 0 -7 -4 -13 -10 -13 -5 0 -10 6 -10 14 0 8 -5 18 -11 21 -7 5 -9
-4 -5 -27 5 -30 2 -37 -19 -46 -22 -10 -29 -6 -79 41 -40 38 -57 64 -66 97
-22 83 4 228 55 306 13 20 23 24 48 22 26 -3 35 -11 58 -54 l26 -51 7 69 c3
38 13 80 22 93 19 29 104 64 156 64 32 1 39 -3 44 -25z m706 -494 c39 -30 63
-180 30 -180 -4 0 -27 23 -51 51 -36 41 -43 57 -43 90 1 64 19 75 64 39z
m2078 16 c0 -3 -4 -8 -10 -11 -5 -3 -10 -1 -10 4 0 6 5 11 10 11 6 0 10 -2 10
-4z m20 -56 c0 -5 -5 -10 -11 -10 -5 0 -7 5 -4 10 3 6 8 10 11 10 2 0 4 -4 4
-10z m7 -75 c0 -8 -4 -15 -9 -15 -10 0 -11 14 -1 23 9 10 10 9 10 -8z m18 -94
c3 -5 2 -12 -3 -15 -5 -3 -9 1 -9 9 0 17 3 19 12 6z m-1249 -224 c3 -12 12
-29 19 -37 19 -23 49 -116 42 -133 -9 -23 -75 -70 -91 -64 -12 5 -15 29 -15
113 0 59 2 117 5 130 7 27 30 22 40 -9z m-576 -66 c0 -10 -6 -25 -13 -35 -11
-15 -17 -16 -35 -7 -21 11 -21 32 2 57 15 15 46 5 46 -15z m1475 -119 c6 -1 3
-6 -5 -12 -9 -6 -17 -5 -23 3 -7 9 -10 9 -14 0 -6 -17 -28 -17 -41 0 -8 10 -1
12 31 11 23 0 47 -1 52 -2z m-261 -10 c2 -4 -4 -9 -15 -9 -11 -1 -17 2 -14 8
7 11 22 12 29 1z m166 -7 c7 -9 8 -15 2 -15 -5 0 -12 7 -16 15 -3 8 -4 15 -2
15 2 0 9 -7 16 -15z m-480 -20 c11 -13 10 -14 -4 -9 -9 3 -16 10 -16 15 0 13
6 11 20 -6z m90 9 c0 -8 -19 -13 -24 -6 -3 5 1 9 9 9 8 0 15 -2 15 -3z m104
-21 c18 -22 18 -22 -5 -18 -12 3 -29 11 -36 20 -7 8 -8 10 -1 5 18 -15 28 -12
21 8 -3 9 -4 15 -2 12 2 -3 13 -15 23 -27z m-1184 -13 c24 -24 9 -38 -54 -46
-45 -7 -46 -6 -46 21 0 53 57 68 100 25z m905 20 c-3 -5 -12 -10 -18 -10 -7 0
-6 4 3 10 19 12 23 12 15 0z m130 -1 c11 -16 1 -19 -13 -3 -7 8 -8 14 -3 14 5
0 13 -5 16 -11z m678 -36 c10 -13 28 -24 40 -24 16 -1 18 -2 5 -6 -10 -3 -15
-11 -12 -21 5 -15 4 -15 -9 1 -8 9 -20 17 -28 17 -11 0 -11 2 -1 9 14 8 7 16
-28 36 -13 8 -13 6 -2 -8 14 -17 7 -42 -9 -32 -5 4 -9 1 -9 -4 0 -6 -7 -11
-16 -11 -13 0 -14 3 -4 15 10 11 9 18 -4 30 -9 9 -16 19 -16 23 0 3 5 1 12 -6
16 -16 31 -15 25 2 -14 37 19 24 56 -21z m-846 17 c-1 -21 -10 -18 -13 5 -1 8
2 15 6 15 5 0 8 -9 7 -20z m418 10 c3 -5 2 -10 -4 -10 -5 0 -13 5 -16 10 -3 6
-2 10 4 10 5 0 13 -4 16 -10z m205 6 c0 -3 -4 -8 -10 -11 -5 -3 -10 -1 -10 4
0 6 5 11 10 11 6 0 10 -2 10 -4z m-718 -13 c-10 -4 -7 -12 10 -31 13 -14 18
-22 11 -18 -6 3 -18 -3 -26 -14 -7 -11 -17 -17 -20 -13 -9 9 -9 25 1 20 4 -3
12 1 19 8 8 9 7 15 -8 26 -25 18 -24 24 4 26 12 0 16 -1 9 -4z m338 -8 c19
-23 8 -25 -14 -4 -11 11 -15 19 -9 19 6 0 16 -7 23 -15z m440 1 c0 4 11 -3 25
-16 25 -24 25 -50 -1 -29 -9 7 -14 8 -14 1 0 -13 -33 -9 -37 5 -2 6 1 14 7 18
8 5 5 12 -7 22 -17 13 -16 13 5 3 12 -6 22 -8 22 -4z m-863 -18 c-3 -8 -6 -5
-6 6 -1 11 2 17 5 13 3 -3 4 -12 1 -19z m143 13 c0 -6 -4 -13 -10 -16 -5 -3
-10 1 -10 9 0 9 5 16 10 16 6 0 10 -4 10 -9z m-160 -33 c0 -5 -7 -3 -15 6 -8
8 -15 18 -15 22 0 3 7 1 15 -6 8 -7 15 -17 15 -22z m566 17 c9 -8 11 -15 6
-15 -5 0 -15 7 -22 15 -7 8 -9 15 -6 15 4 0 14 -7 22 -15z m-659 -12 c2 -6 -7
-8 -22 -6 -14 3 -25 9 -25 12 0 12 43 6 47 -6z m333 1 c0 -2 -7 -4 -15 -4 -8
0 -15 4 -15 10 0 5 7 7 15 4 8 -4 15 -8 15 -10z m498 -9 c-3 -3 -9 2 -12 12
-6 14 -5 15 5 6 7 -7 10 -15 7 -18z m-903 5 c3 -5 -1 -10 -10 -10 -9 0 -13 5
-10 10 3 6 8 10 10 10 2 0 7 -4 10 -10z m797 -7 c-6 -2 -9 -10 -6 -15 4 -7 2
-8 -4 -4 -18 11 -14 26 6 25 10 0 12 -3 4 -6z m168 -3 c0 -5 -2 -10 -4 -10 -3
0 -8 5 -11 10 -3 6 -1 10 4 10 6 0 11 -4 11 -10z m-1040 -10 c0 -5 -2 -10 -4
-10 -3 0 -8 5 -11 10 -3 6 -1 10 4 10 6 0 11 -4 11 -10z m245 -2 c5 4 5 1 1
-6 -6 -10 -11 -10 -22 -1 -8 6 -14 14 -14 16 0 3 6 0 13 -6 8 -6 18 -7 22 -3z
m-381 -13 c-7 -18 -20 -19 -30 -3 -4 6 -3 8 4 4 6 -3 13 -2 17 4 9 15 15 12 9
-5z m39 8 c-7 -2 -13 -12 -13 -20 0 -9 -3 -14 -6 -10 -10 10 4 37 18 36 10 0
10 -2 1 -6z m53 -20 c-10 -10 -19 5 -10 18 6 11 8 11 12 0 2 -7 1 -15 -2 -18z
m249 9 c-3 -3 -11 0 -18 7 -9 10 -8 11 6 5 10 -3 15 -9 12 -12z m692 -4 c-3
-8 -6 -5 -6 6 -1 11 2 17 5 13 3 -3 4 -12 1 -19z m-1090 -23 c-7 -7 -16 -11
-21 -8 -4 3 -2 9 5 14 8 5 10 9 6 9 -5 0 -5 5 -1 11 5 8 9 7 14 -1 5 -7 3 -19
-3 -25z m639 8 c14 -22 14 -25 2 -15 -14 11 -18 10 -27 -5 -6 -10 -11 -13 -11
-6 0 6 5 15 11 18 6 4 8 13 5 21 -9 22 0 16 20 -13z m64 16 c0 -5 -4 -7 -10
-4 -5 3 -10 1 -10 -6 0 -7 -3 -10 -6 -6 -8 7 4 27 17 27 5 0 9 -5 9 -11z m290
-24 c11 -13 10 -15 -4 -9 -9 3 -16 10 -16 15 0 5 -5 9 -11 9 -5 0 -8 -4 -4 -9
3 -5 2 -12 -3 -15 -4 -2 -8 6 -8 19 0 19 3 22 16 15 9 -5 23 -16 30 -25z m30
19 c0 -2 -7 -4 -15 -4 -8 0 -15 4 -15 10 0 5 7 7 15 4 8 -4 15 -8 15 -10z
m180 10 c0 -8 -19 -13 -24 -6 -3 5 1 9 9 9 8 0 15 -2 15 -3z m-1260 -14 c0 -5
-4 -10 -9 -10 -6 0 -13 5 -16 10 -3 6 1 10 9 10 9 0 16 -4 16 -10z m164 -6 c3
-8 2 -12 -4 -9 -6 3 -10 10 -10 16 0 14 7 11 14 -7z m743 -3 c0 -11 -7 -17
-14 -14 -9 4 -9 8 0 19 16 17 16 17 14 -5z m478 7 c5 4 5 2 2 -5 -8 -13 -47
-6 -47 9 0 5 8 4 19 -1 10 -6 22 -7 26 -3z m-905 -10 c0 -6 -3 -8 -7 -5 -3 4
-13 1 -22 -6 -14 -11 -14 -10 -2 6 15 20 31 22 31 5z m104 -14 c3 -8 2 -12 -4
-9 -6 3 -10 10 -10 16 0 14 7 11 14 -7z m534 -16 c9 -11 4 -14 -24 -16 -23 -2
-33 1 -29 8 4 6 16 8 28 5 21 -6 20 -5 -3 15 -20 17 -21 19 -4 11 11 -5 26
-16 32 -23z m66 16 c3 -8 2 -12 -4 -9 -6 3 -10 10 -10 16 0 14 7 11 14 -7z
m-1082 -12 c-7 -2 -10 -8 -6 -13 3 -5 1 -9 -5 -9 -5 0 -9 9 -8 19 1 12 6 17
16 13 10 -4 11 -7 3 -10z m155 -14 c-3 -8 -6 -5 -6 6 -1 11 2 17 5 13 3 -3 4
-12 1 -19z m1050 7 c0 -8 -4 -12 -9 -9 -5 3 -6 10 -3 15 9 13 12 11 12 -6z
m-1087 1 c0 -3 -4 -8 -10 -11 -5 -3 -10 -1 -10 4 0 6 5 11 10 11 6 0 10 -2 10
-4z m327 -11 c0 -8 -4 -12 -9 -9 -5 3 -6 10 -3 15 9 13 12 11 12 -6z m407 -3
c3 -5 -1 -9 -9 -9 -8 0 -12 4 -9 9 3 4 7 8 9 8 2 0 6 -4 9 -8z m-989 -20 c-3
-3 -11 0 -18 7 -9 10 -8 11 6 5 10 -3 15 -9 12 -12z m79 -5 c13 -12 14 -17 4
-17 -7 -1 -2 -10 12 -22 18 -16 20 -19 6 -14 -10 3 -26 1 -35 -6 -14 -11 -14
-11 -3 3 16 21 12 39 -13 60 -16 14 -17 17 -4 15 9 -1 24 -9 33 -19z m461 13
c3 -5 1 -10 -4 -10 -6 0 -11 5 -11 10 0 6 2 10 4 10 3 0 8 -4 11 -10z m577 -4
c10 5 10 4 1 -6 -10 -11 -15 -11 -28 0 -12 10 -15 10 -15 0 0 -8 -3 -11 -6 -7
-3 3 -3 11 1 17 5 8 10 8 20 0 8 -7 20 -8 27 -4z m-1122 -21 c17 -9 30 -18 30
-21 0 -2 -13 2 -30 11 -17 9 -30 11 -30 5 0 -5 5 -10 10 -10 6 0 10 -5 10 -11
0 -5 -4 -7 -10 -4 -9 6 -15 -17 -10 -40 10 -47 11 -46 -18 -28 -17 11 -22 12
-14 3 14 -16 16 -34 3 -26 -5 3 -12 -1 -15 -10 -5 -13 -10 -13 -36 6 -35 25
-38 35 -9 37 13 1 23 -5 26 -17 7 -26 20 -17 18 12 -1 19 -7 23 -33 22 -18 -1
-32 2 -32 8 0 5 5 6 10 3 6 -3 10 -1 10 4 0 14 -6 14 -32 0 -16 -9 -24 -7 -37
6 -15 16 -14 17 9 5 l25 -13 -19 22 c-16 18 -17 21 -3 21 9 0 19 -4 22 -10 3
-5 14 -10 23 -10 15 0 15 2 2 10 -12 7 -10 9 7 7 15 -1 19 -5 12 -13 -6 -7 -4
-16 6 -24 12 -10 15 -10 15 1 0 14 45 69 56 69 3 0 18 -7 34 -15z m229 -19
c-3 -3 -11 5 -18 17 -13 21 -12 21 5 5 10 -10 16 -20 13 -22z m476 24 c3 -5 1
-10 -4 -10 -6 0 -11 5 -11 10 0 6 2 10 4 10 3 0 8 -4 11 -10z m58 -5 c-3 -9
-8 -14 -10 -11 -3 3 -2 9 2 15 9 16 15 13 8 -4z m697 -6 c0 -5 -4 -9 -8 -9 -5
0 -9 7 -9 15 0 8 4 12 9 9 4 -3 8 -9 8 -15z m-652 -14 c-3 -3 -9 2 -12 12 -6
14 -5 15 5 6 7 -7 10 -15 7 -18z m-201 -9 c-2 -6 -11 -12 -21 -12 -13 -2 -14
-1 -1 3 13 4 14 8 4 19 -10 12 -9 13 5 8 9 -4 15 -12 13 -18z m45 10 c7 4 8 2
4 -5 -9 -13 -26 -5 -25 12 0 9 2 8 6 -1 2 -6 10 -9 15 -6z m435 0 c-3 -7 0
-19 6 -25 8 -8 8 -11 -1 -11 -7 0 -12 3 -13 8 0 4 -2 15 -4 25 -2 9 1 17 7 17
6 0 8 -6 5 -14z m43 4 c0 -5 -8 -10 -17 -10 -15 0 -16 2 -3 10 19 12 20 12 20
0z m42 -14 c7 4 8 2 4 -5 -9 -13 -26 -5 -25 12 0 9 2 8 6 -1 2 -6 10 -9 15 -6z
m145 -1 c0 -8 -4 -12 -9 -9 -5 3 -6 10 -3 15 9 13 12 11 12 -6z m180 -7 c-3
-8 -6 -5 -6 6 -1 11 2 17 5 13 3 -3 4 -12 1 -19z m-1467 -29 c0 -11 -4 -19
-10 -19 -5 0 -7 6 -4 14 3 8 1 17 -5 21 -6 3 -11 11 -11 17 0 7 6 6 15 -2 8
-7 15 -21 15 -31z m130 31 c6 9 10 10 10 3 0 -6 -7 -18 -15 -26 -8 -8 -12 -17
-10 -21 3 -3 2 -4 -2 -1 -3 3 -8 17 -9 32 -2 21 -1 24 6 13 9 -13 11 -13 20 0z
m1064 -6 c3 -8 2 -12 -4 -9 -6 3 -10 10 -10 16 0 14 7 11 14 -7z m231 -2 c-3
-3 -11 0 -18 7 -9 10 -8 11 6 5 10 -3 15 -9 12 -12z m-797 -22 c9 -15 9 -18
-1 -14 -7 2 -18 13 -25 24 -9 15 -9 18 1 14 7 -2 18 -13 25 -24z m485 17 c3
-7 -3 -13 -12 -13 -10 0 -18 6 -18 13 0 7 6 13 13 13 6 0 14 -6 17 -13z m-933
-1 c0 -3 -4 -8 -10 -11 -5 -3 -10 -1 -10 4 0 6 5 11 10 11 6 0 10 -2 10 -4z
m-210 -21 c0 -8 -2 -15 -4 -15 -2 0 -6 7 -10 15 -3 8 -1 15 4 15 6 0 10 -7 10
-15z m111 -7 c15 -13 18 -19 7 -15 -9 3 -18 2 -20 -3 -2 -6 -9 -5 -18 0 -13 8
-12 10 4 10 15 0 16 3 6 15 -18 22 -7 18 21 -7z m827 -3 c-3 -3 -9 2 -12 12
-6 14 -5 15 5 6 7 -7 10 -15 7 -18z m522 21 c0 -3 -4 -8 -10 -11 -5 -3 -10 -1
-10 4 0 6 5 11 10 11 6 0 10 -2 10 -4z m-36 -14 c3 -5 -1 -9 -9 -9 -8 0 -15 4
-15 9 0 4 4 8 9 8 6 0 12 -4 15 -8z m-805 -21 c12 -11 18 -22 13 -25 -6 -3
-13 1 -16 10 -3 8 -10 13 -14 10 -5 -3 -9 1 -9 9 0 19 0 19 26 -4z m548 13
c-3 -3 -12 -4 -19 -1 -8 3 -5 6 6 6 11 1 17 -2 13 -5z m101 -25 c-3 -8 -7 -3
-11 10 -4 17 -3 21 5 13 5 -5 8 -16 6 -23z m-179 4 c0 -12 -2 -13 -6 -5 -4 10
-8 10 -21 0 -15 -12 -16 -11 -3 5 7 9 17 17 22 17 5 0 9 -8 8 -17z m147 -2 c1
-6 0 -7 -3 -1 -2 5 -9 8 -13 5 -5 -3 -11 -1 -14 4 -4 5 2 8 11 7 9 -2 18 -8
19 -15z m-1508 -14 c8 -10 6 -13 -7 -13 -11 0 -17 6 -14 13 3 7 6 13 8 13 1 0
7 -6 13 -13z m348 -17 c5 0 25 -19 44 -43 31 -37 32 -40 8 -22 -15 11 -30 28
-33 38 -4 9 -10 15 -14 12 -5 -2 -19 8 -32 23 -18 20 -19 22 -3 9 11 -9 25
-17 30 -17z m84 15 c11 -13 10 -14 -4 -9 -9 3 -16 10 -16 15 0 13 6 11 20 -6z
m-156 -16 c3 -3 -4 -5 -14 -6 -11 -1 -20 2 -20 7 0 8 25 8 34 -1z m1401 -8
c-3 -6 -11 -11 -16 -11 -5 0 -4 6 3 14 14 16 24 13 13 -3z m51 10 c-6 -10 22
-25 40 -22 6 0 18 -6 25 -16 13 -15 12 -15 -8 -4 -13 6 -23 9 -23 6 0 -3 -11
2 -25 11 -21 14 -26 34 -9 34 3 0 3 -4 0 -9z m79 0 c3 -5 2 -12 -3 -15 -5 -3
-9 1 -9 9 0 17 3 19 12 6z m-1550 -55 c1 -13 8 -20 18 -18 8 1 18 -2 22 -8 3
-5 2 -10 -4 -10 -6 0 -7 -7 -4 -17 4 -11 3 -14 -6 -9 -7 5 -10 14 -7 22 3 8 0
11 -10 7 -7 -3 -14 0 -14 6 0 6 -4 11 -9 11 -5 0 -8 -14 -6 -32 4 -27 3 -29
-8 -14 -7 10 -17 16 -22 14 -13 -4 -75 43 -75 56 0 5 11 -1 24 -13 31 -29 55
-32 78 -9 21 21 23 32 6 25 -8 -3 -14 5 -14 19 -2 21 0 22 14 8 8 -9 16 -26
17 -38z m1205 29 c14 -19 14 -19 -2 -6 -10 7 -18 18 -18 24 0 6 1 8 3 6 1 -2
9 -13 17 -24z m-30 -6 c0 -6 -4 -7 -10 -4 -5 3 -10 11 -10 16 0 6 5 7 10 4 6
-3 10 -11 10 -16z m-1079 -16 c13 -16 12 -17 -3 -4 -10 7 -18 15 -18 17 0 8 8
3 21 -13z m1374 8 c3 -5 2 -12 -3 -15 -5 -3 -9 1 -9 9 0 17 3 19 12 6z m-157
-46 c-3 -3 -9 2 -12 12 -6 14 -5 15 5 6 7 -7 10 -15 7 -18z m-170 -5 c-7 -10
-14 -17 -17 -15 -4 4 18 35 25 35 2 0 -1 -9 -8 -20z m-421 -12 c-3 -8 -6 -5
-6 6 -1 11 2 17 5 13 3 -3 4 -12 1 -19z m478 13 c3 -6 -3 -9 -14 -8 -11 0 -17
5 -15 9 7 11 22 10 29 -1z m170 -3 c5 4 5 1 1 -6 -6 -10 -11 -10 -22 -1 -8 6
-14 14 -14 16 0 3 6 0 13 -6 8 -6 18 -7 22 -3z m-1444 -19 c9 -17 13 -19 20
-8 7 12 9 11 10 -1 1 -8 1 -18 0 -22 0 -5 8 -8 18 -8 11 0 21 3 24 8 2 4 2 1
1 -5 -2 -7 1 -13 6 -13 6 0 10 -5 10 -12 0 -9 -3 -9 -12 0 -7 7 -17 12 -22 12
-6 -1 0 -10 13 -21 13 -11 22 -21 20 -23 -2 -3 -28 18 -57 45 -29 27 -57 47
-63 44 -5 -3 -6 1 -3 9 8 22 21 20 35 -5z m259 -19 c0 -4 -7 -7 -15 -7 -8 0
-12 4 -9 9 3 5 0 17 -7 26 -11 13 -8 12 9 -2 12 -11 22 -22 22 -26z m501 17
c-10 -9 -11 -8 -5 6 3 10 9 15 12 12 3 -3 0 -11 -7 -18z m-547 -3 c3 -8 2 -12
-4 -9 -6 3 -10 10 -10 16 0 14 7 11 14 -7z m64 -9 c-3 -3 -9 2 -12 12 -6 14
-5 15 5 6 7 -7 10 -15 7 -18z m982 -1 c0 -2 -9 0 -20 6 -11 6 -20 13 -20 16 0
2 9 0 20 -6 11 -6 20 -13 20 -16z m40 6 c0 -5 -2 -10 -4 -10 -3 0 -8 5 -11 10
-3 6 -1 10 4 10 6 0 11 -4 11 -10z m45 0 c3 -6 -1 -7 -9 -4 -18 7 -21 14 -7
14 6 0 13 -4 16 -10z m-555 -24 c0 -3 -4 -8 -10 -11 -5 -3 -10 -1 -10 4 0 6 5
11 10 11 6 0 10 -2 10 -4z m-60 -31 c14 -19 14 -19 -2 -6 -10 7 -18 18 -18 24
0 6 1 8 3 6 1 -2 9 -13 17 -24z m870 15 c0 -5 -7 -10 -16 -10 -8 0 -12 5 -9
10 3 6 10 10 16 10 5 0 9 -4 9 -10z m45 0 c4 -6 11 -8 16 -5 5 4 9 1 9 -4 0
-14 -17 -14 -26 0 -4 8 -9 7 -15 -2 -7 -11 -9 -10 -9 4 0 19 15 23 25 7z
m-200 -19 c-3 -6 -11 -11 -16 -11 -5 0 -4 6 3 14 14 16 24 13 13 -3z m-635 -1
c0 -5 -2 -10 -4 -10 -3 0 -8 5 -11 10 -3 6 -1 10 4 10 6 0 11 -4 11 -10z m550
-5 c0 -12 -19 -12 -23 0 -4 9 -1 12 9 8 7 -3 14 -7 14 -8z m-1240 -20 c11 -13
10 -14 -4 -9 -9 3 -16 10 -16 15 0 13 6 11 20 -6z m155 -3 c-3 -3 -11 0 -18 7
-9 10 -8 11 6 5 10 -3 15 -9 12 -12z m975 -4 c0 -6 -6 -5 -15 2 -8 7 -15 14
-15 16 0 2 7 1 15 -2 8 -4 15 -11 15 -16z m328 10 c-2 -7 3 -12 10 -10 8 1 11
-2 8 -7 -4 -5 0 -11 6 -14 7 -2 10 -7 7 -11 -7 -7 -49 31 -49 44 0 6 5 10 10
10 6 0 9 -6 8 -12z m86 -4 c5 -14 4 -15 -9 -4 -17 14 -19 20 -6 20 5 0 12 -7
15 -16z m-1609 -24 c17 -19 17 -19 -8 -7 -14 6 -23 15 -21 19 7 11 9 10 29
-12z m135 10 c7 11 8 5 3 -19 -4 -24 -3 -32 5 -27 8 5 10 1 5 -10 -5 -13 -10
-8 -25 22 -19 41 -24 58 -8 34 9 -13 11 -13 20 0z m210 -5 c0 -8 -4 -15 -10
-15 -5 0 -7 7 -4 15 4 8 8 15 10 15 2 0 4 -7 4 -15z m-513 -55 c1 -11 -2 -18
-8 -15 -5 4 -9 15 -9 27 0 12 -5 18 -13 15 -7 -3 -13 3 -13 14 0 18 1 18 21
-1 11 -11 21 -29 22 -40z m123 39 c0 -5 -4 -8 -9 -5 -21 13 -17 -23 4 -46 13
-14 21 -30 17 -34 -4 -5 1 -2 11 6 16 11 18 11 15 -1 -4 -21 -30 -38 -48 -31
-13 5 -13 4 0 -14 8 -10 20 -22 25 -26 7 -5 6 -8 0 -8 -6 0 -17 6 -24 13 -12
10 -13 8 -7 -8 5 -16 2 -15 -14 5 -16 20 -22 22 -29 11 -5 -8 -7 -21 -3 -29 4
-10 1 -13 -7 -8 -7 5 -10 15 -7 23 3 8 2 12 -2 9 -5 -3 -8 5 -7 17 1 12 -2 34
-6 50 -5 16 -4 25 2 22 11 -7 7 24 -6 45 -7 12 -6 13 6 4 17 -13 62 -16 54 -4
-3 4 1 11 7 13 21 9 28 8 28 -4z m1671 -6 c13 -16 12 -17 -3 -4 -10 7 -18 15
-18 17 0 8 8 3 21 -13z m-1601 -14 c0 7 5 9 10 6 6 -4 9 -14 8 -23 -2 -9 3
-17 10 -18 6 -1 17 -2 23 -3 6 0 9 -8 6 -16 -4 -8 -2 -17 3 -20 6 -4 10 -14 9
-23 0 -12 -3 -11 -9 6 -11 26 -32 30 -23 5 5 -15 3 -14 -10 2 -15 19 -15 18
-13 -17 2 -21 -1 -35 -5 -32 -8 5 -13 -9 -10 -28 0 -4 -7 -4 -16 -1 -10 4 -14
2 -10 -4 4 -6 2 -13 -4 -15 -6 -2 -1 -16 13 -33 12 -17 16 -25 7 -18 -26 21
-38 3 -40 -59 0 -24 -11 -23 -27 3 -8 12 -10 19 -5 16 4 -3 14 1 20 9 8 8 9
15 3 19 -6 3 -10 1 -10 -6 0 -8 -4 -8 -12 -1 -18 14 -54 77 -40 68 8 -5 10 3
5 26 -3 18 -3 30 1 26 7 -5 13 -26 15 -50 1 -5 6 -8 12 -8 5 0 8 4 5 9 -3 5 0
11 7 14 8 3 14 -3 14 -14 1 -11 -2 -17 -8 -14 -13 8 -11 -9 2 -22 18 -18 41
-5 29 17 -5 9 -7 20 -4 23 10 10 13 67 3 72 -5 4 -9 1 -9 -6 0 -7 -3 -10 -6
-6 -3 3 -3 11 1 17 5 8 15 4 31 -11 24 -23 34 -14 12 10 -10 11 -10 13 0 7 6
-4 12 -2 12 3 0 6 -4 11 -9 11 -5 0 -8 12 -8 26 0 17 2 22 8 13 4 -7 5 -17 3
-21 -3 -4 -1 -8 5 -8 15 0 23 18 10 25 -5 4 -8 13 -5 20 6 17 -26 14 -42 -5
-11 -13 -11 -11 -2 8 10 21 7 26 -13 23 -5 -1 -6 3 -2 9 4 6 15 4 31 -6 16
-11 24 -12 24 -5z m1575 -10 c-6 -9 7 -13 37 -10 9 1 19 -3 23 -9 3 -5 -1 -10
-11 -10 -13 0 -14 -3 -5 -14 9 -11 9 -16 0 -22 -7 -4 -9 -3 -5 4 3 6 2 13 -4
17 -6 4 -8 12 -4 18 3 7 -2 3 -10 -7 -9 -11 -17 -17 -17 -13 -1 4 -2 11 -3 16
0 5 -5 13 -9 18 -5 4 -7 1 -5 -7 2 -10 -5 -15 -23 -16 -26 -1 -33 15 -15 33 4
4 6 2 4 -6 -1 -8 5 -17 16 -19 11 -2 16 0 12 6 -3 6 -2 13 4 17 6 4 7 11 4 17
-4 7 -2 8 5 4 6 -4 9 -12 6 -17z m-1520 -7 c-3 -3 -11 0 -18 7 -9 10 -8 11 6
5 10 -3 15 -9 12 -12z m139 -18 c5 -14 4 -15 -9 -4 -17 14 -19 20 -6 20 5 0
12 -7 15 -16z m65 -14 c11 -24 11 -24 -3 -6 -9 11 -16 24 -16 30 0 12 5 7 19
-24z m-124 -10 c3 -6 -1 -7 -9 -4 -18 7 -21 14 -7 14 6 0 13 -4 16 -10z m1392
-22 c-3 -8 -6 -5 -6 6 -1 11 2 17 5 13 3 -3 4 -12 1 -19z m49 -24 c1 -9 -1
-13 -4 -9 -4 4 -7 10 -7 13 0 4 -4 14 -9 22 -7 12 -6 13 4 3 8 -7 15 -20 16
-29z m-1886 -3 c0 9 6 7 21 -7 17 -18 22 -29 28 -63 1 -3 7 3 14 13 13 17 16
16 45 -20 18 -21 32 -32 32 -24 0 13 2 13 9 1 5 -8 7 -20 4 -28 -4 -10 -14 -5
-35 19 -16 18 -27 27 -23 21 3 -7 1 -22 -5 -34 -10 -17 -8 -25 9 -43 23 -25
28 -42 9 -29 -20 12 -38 12 -38 1 0 -15 -38 20 -57 53 -19 32 -50 52 -58 39
-4 -6 -2 -9 3 -8 5 2 21 -12 36 -29 15 -18 23 -33 17 -33 -6 0 -7 -8 -4 -17 4
-10 -7 -2 -25 18 -29 33 -62 47 -62 27 0 -5 -4 -7 -9 -4 -5 3 -8 18 -8 33 l0
27 18 -22 18 -23 -1 31 c-1 17 -5 33 -10 36 -4 3 -6 9 -3 14 3 4 -2 13 -10 20
-8 7 -15 17 -15 23 0 6 14 -2 30 -18 17 -16 30 -25 30 -21 0 4 5 4 11 0 8 -5
8 -8 0 -13 -7 -5 -2 -16 14 -31 23 -22 25 -22 19 -5 -7 18 -6 19 9 6 16 -12
17 -12 11 5 -4 12 3 8 20 -11 14 -16 25 -25 26 -18 0 7 -10 21 -21 32 -16 15
-26 18 -40 11 -12 -7 -20 -6 -25 2 -4 7 -3 8 4 4 7 -4 12 -2 12 3 0 6 3 10 8
10 19 -3 33 2 27 11 -4 7 -13 6 -26 -1 -21 -11 -49 2 -49 24 0 5 9 2 20 -8 12
-11 20 -13 20 -6 0 7 5 9 12 5 7 -4 8 -3 4 5 -4 6 -12 9 -17 5 -5 -3 -16 -1
-24 6 -10 8 -16 7 -23 -6 -8 -15 -9 -15 -15 0 -4 10 -3 15 3 11 6 -3 13 1 16
10 6 14 8 14 25 -1 15 -13 19 -14 19 -3z m1953 13 c-7 -3 -11 -11 -9 -17 1 -7
1 -8 -2 -3 -2 4 -8 3 -12 -3 -5 -9 -10 -8 -20 4 -11 13 -10 15 4 9 9 -3 16 -1
16 5 0 6 8 11 18 10 9 0 12 -3 5 -5z m-443 -14 c0 -5 -5 -10 -11 -10 -5 0 -7
5 -4 10 3 6 8 10 11 10 2 0 4 -4 4 -10z m320 -11 c0 -6 -4 -7 -10 -4 -5 3 -10
11 -10 16 0 6 5 7 10 4 6 -3 10 -11 10 -16z m-1689 -35 c-9 -17 -10 -17 -11
-2 0 9 -3 25 -6 35 -6 17 -6 17 11 2 13 -13 15 -21 6 -35z m1442 31 c-3 -9 -8
-14 -10 -11 -3 3 -2 9 2 15 9 16 15 13 8 -4z m111 -21 c7 -19 2 -18 -19 6 -16
17 -16 20 -3 15 9 -4 19 -13 22 -21z m43 -6 c-3 -8 -6 -5 -6 6 -1 11 2 17 5
13 3 -3 4 -12 1 -19z m163 12 c0 -5 -2 -10 -4 -10 -3 0 -8 5 -11 10 -3 6 -1
10 4 10 6 0 11 -4 11 -10z m-332 -25 c-3 -3 -9 2 -12 12 -6 14 -5 15 5 6 7 -7
10 -15 7 -18z m-1236 -14 c2 -17 1 -28 -4 -25 -8 5 -12 54 -4 54 2 0 6 -13 8
-29z m23 19 c3 -5 1 -10 -4 -10 -6 0 -11 5 -11 10 0 6 2 10 4 10 3 0 8 -4 11
-10z m32 -22 c-3 -8 -6 -5 -6 6 -1 11 2 17 5 13 3 -3 4 -12 1 -19z m1561 -23
c-3 -3 -9 2 -12 12 -6 14 -5 15 5 6 7 -7 10 -15 7 -18z m-1608 -30 c0 -19 -6
-19 -14 0 -3 8 -1 15 4 15 6 0 10 -7 10 -15z m24 -25 c-6 -6 -10 -3 -10 10 0
13 4 16 10 10 7 -7 7 -13 0 -20z m-69 10 c3 -5 1 -10 -4 -10 -6 0 -11 5 -11
10 0 6 2 10 4 10 3 0 8 -4 11 -10z m175 0 c0 -5 -4 -10 -10 -10 -5 0 -10 5
-10 10 0 6 5 10 10 10 6 0 10 -4 10 -10z m1074 -19 c4 -5 -3 -7 -14 -4 -23 6
-26 13 -6 13 8 0 17 -4 20 -9z m-1261 -22 c-8 -8 -13 -7 -18 2 -5 8 -4 10 3 5
7 -4 12 -2 12 5 0 7 3 9 7 6 4 -4 2 -12 -4 -18z m245 -4 c-3 -3 -9 2 -12 12
-6 14 -5 15 5 6 7 -7 10 -15 7 -18z m1476 17 c3 -5 -1 -9 -9 -9 -8 0 -15 4
-15 9 0 10 17 10 24 0z m-1964 -23 c0 -6 -4 -7 -10 -4 -5 3 -10 11 -10 16 0 6
5 7 10 4 6 -3 10 -11 10 -16z"/>
<path d="M2243 3939 c-95 -61 -75 -230 33 -275 45 -19 73 -18 114 5 28 15 34
23 32 44 -2 18 5 35 22 52 31 31 32 55 6 112 -35 78 -135 108 -207 62z"/>
<path d="M842 1935 c2 -14 8 -26 13 -26 6 0 11 12 13 26 2 18 -1 25 -13 25
-12 0 -15 -7 -13 -25z"/>
<path d="M782 1918 c-7 -7 -12 -18 -12 -26 0 -7 -7 -20 -15 -28 -8 -8 -11 -22
-8 -31 5 -14 8 -13 17 8 6 13 18 30 27 36 16 12 20 36 8 48 -3 2 -11 -1 -17
-7z"/>
<path d="M690 1867 c0 -8 9 -17 20 -20 11 -3 20 -1 20 4 0 4 -9 13 -20 19 -16
8 -20 8 -20 -3z"/>
<path d="M3433 883 c4 -3 -1 -12 -11 -20 -15 -13 -15 -13 4 -4 15 7 25 7 35
-2 7 -7 5 -2 -5 11 -11 12 -21 22 -24 22 -3 0 -2 -3 1 -7z"/>
<path d="M1955 684 c-15 -15 -14 -18 6 -40 27 -28 33 -30 21 -6 -4 9 -7 27 -6
40 2 26 0 27 -21 6z"/>
<path d="M1885 310 c6 -10 4 -12 -9 -7 -10 4 -15 3 -11 -3 4 -6 14 -9 22 -8 9
2 18 -2 20 -9 3 -8 -4 -10 -21 -7 -24 4 -25 2 -16 -20 6 -16 5 -26 -1 -30 -5
-2 -4 -3 3 -2 7 2 20 -3 29 -11 13 -11 17 -11 16 -1 -1 36 4 59 13 53 21 -13
-2 21 -27 39 -14 11 -23 13 -18 6z m18 -66 c-4 -10 -9 -12 -15 -6 -12 12 -1
35 12 27 5 -3 6 -13 3 -21z"/>
<path d="M2037 266 c-4 -10 -1 -13 8 -9 8 3 12 9 9 14 -7 12 -11 11 -17 -5z"/>
<path d="M1985 180 c3 -5 8 -10 11 -10 2 0 4 5 4 10 0 6 -5 10 -11 10 -5 0 -7
-4 -4 -10z"/>
<path d="M1900 123 c0 -5 9 -18 20 -28 11 -10 20 -14 20 -8 0 5 -9 18 -20 28
-11 10 -20 14 -20 8z"/>
<path d="M1767 146 c-3 -8 1 -22 9 -33 14 -17 15 -17 6 2 -5 11 -7 26 -5 33 6
17 -4 15 -10 -2z"/>
<path d="M1730 101 c0 -7 -4 -9 -10 -6 -23 14 -8 -13 22 -41 32 -28 32 -28 9
-2 -14 16 -22 30 -19 33 3 3 17 -8 32 -25 14 -17 26 -27 26 -21 0 5 -5 13 -11
16 -6 4 -8 14 -4 23 3 9 3 13 -1 9 -4 -4 -16 0 -26 10 -12 10 -18 12 -18 4z"/>
<path d="M1669 73 c12 -24 31 -39 31 -25 0 5 -10 17 -21 28 -22 19 -22 19 -10
-3z"/>
<path d="M2252 4915 c-305 -36 -567 -118 -698 -218 -117 -89 -111 -183 16
-269 85 -57 92 -57 158 3 206 189 406 270 732 294 331 26 820 -121 1011 -302
l56 -54 64 43 c163 111 164 205 1 315 -109 73 -317 140 -562 179 -143 22 -619
28 -778 9z"/>
<path d="M3530 3896 c14 -15 33 -48 42 -74 16 -45 16 -46 17 -15 1 45 -16 77
-52 98 l-32 18 25 -27z"/>
<path d="M3314 3886 c-37 -17 -61 -47 -75 -98 -23 -88 41 -178 126 -178 43 0
45 1 45 30 0 59 37 104 65 80 33 -28 25 77 -9 126 -17 24 -75 54 -103 54 -10
-1 -32 -7 -49 -14z"/>
<path d="M1537 3724 c-4 -4 -2 -14 5 -21 7 -8 13 -45 14 -81 3 -107 13 -209
23 -234 5 -13 14 -48 21 -78 7 -30 17 -60 22 -67 6 -7 8 -18 6 -25 -3 -8 -11
-1 -21 17 -21 38 -22 24 -2 -15 18 -35 8 -58 -36 -84 -26 -15 -28 -15 -34 4
-3 11 -4 24 -1 28 3 5 -6 20 -21 33 -35 33 -53 79 -53 136 0 57 17 94 48 108
13 6 20 16 17 25 -4 13 -25 174 -25 191 0 4 -37 10 -83 14 -151 12 -197 -25
-197 -162 0 -151 110 -397 203 -453 65 -40 174 -14 201 46 9 20 11 19 48 -19
36 -38 40 -40 55 -24 14 14 15 27 4 129 -7 62 -16 158 -21 213 -12 129 -61
261 -111 301 -20 16 -54 26 -62 18z m113 -534 c0 -5 -4 -10 -10 -10 -5 0 -10
5 -10 10 0 6 5 10 10 10 6 0 10 -4 10 -10z"/>
<path d="M1961 2484 c0 -11 3 -14 6 -6 3 7 2 16 -1 19 -3 4 -6 -2 -5 -13z"/>
<path d="M4561 2411 c-18 -32 -14 -43 9 -31 21 11 27 35 11 45 -6 3 -15 -3
-20 -14z"/>
<path d="M3576 2375 c-15 -11 -17 -21 -12 -50 l7 -36 -42 45 c-35 39 -44 44
-61 35 -14 -8 -19 -18 -15 -35 5 -30 -22 -33 -47 -5 -17 19 -18 19 -52 -1 -19
-11 -34 -26 -34 -33 0 -7 10 -62 21 -121 12 -60 29 -161 38 -223 l17 -115 55
-29 c40 -21 63 -27 91 -24 71 9 201 -33 331 -107 42 -24 77 -40 77 -35 0 5 -4
9 -10 9 -5 0 -9 23 -9 50 1 42 4 48 16 39 8 -7 12 -18 9 -24 -2 -7 3 -12 12
-11 12 1 17 -7 17 -26 -1 -14 2 -25 6 -22 4 2 13 -1 21 -8 7 -7 20 -14 28 -15
8 -1 26 -5 40 -9 l25 -7 -25 20 c-14 11 -32 23 -40 26 -8 3 3 4 25 3 22 -2 55
-11 74 -20 26 -14 35 -15 41 -6 4 7 13 9 20 5 9 -6 11 -4 5 4 -4 7 -16 11 -26
8 -23 -6 -28 1 -31 40 -1 17 -8 30 -15 30 -7 0 -13 -4 -13 -9 0 -5 -4 -7 -10
-3 -5 3 -7 12 -4 19 3 7 -2 16 -11 20 -13 5 -15 0 -12 -22 4 -24 1 -27 -23
-27 -20 0 -26 4 -22 14 3 9 1 12 -5 8 -7 -5 -9 1 -6 15 4 19 3 20 -6 8 -10
-13 -11 -13 -11 0 0 8 -8 24 -17 35 -13 16 -15 17 -10 3 10 -28 -1 -21 -17 11
-16 30 -73 53 -62 25 7 -18 1 -18 -30 2 -31 21 -166 214 -199 286 -28 61 -33
118 -10 118 11 0 15 13 15 54 0 51 -3 57 -33 80 -39 30 -45 31 -71 11z m254
-615 c8 -5 11 -10 5 -10 -5 0 -17 5 -25 10 -8 5 -10 10 -5 10 6 0 17 -5 25
-10z m95 -40 c3 -5 1 -10 -4 -10 -6 0 -11 5 -11 10 0 6 2 10 4 10 3 0 8 -4 11
-10z m206 -43 c-10 -9 -11 -8 -5 6 3 10 9 15 12 12 3 -3 0 -11 -7 -18z"/>
<path d="M4071 2381 c-8 -5 -21 -7 -29 -3 -13 5 -13 1 1 -19 10 -13 22 -41 28
-62 14 -51 45 -66 93 -43 38 18 43 33 25 83 -8 25 -19 33 -54 42 -52 13 -47
13 -64 2z"/>
<path d="M2177 2313 c-4 -3 -7 -16 -6 -27 0 -19 1 -19 10 3 10 24 8 36 -4 24z"/>
<path d="M4592 2241 c30 -39 46 -40 18 -1 -12 17 -26 30 -31 30 -6 0 0 -13 13
-29z"/>
<path d="M3117 2243 c-4 -3 -28 -11 -54 -18 -56 -14 -66 -31 -24 -40 33 -7 48
-5 44 7 -2 4 3 5 11 2 13 -5 46 30 46 48 0 10 -14 10 -23 1z"/>
<path d="M4640 2178 c0 -9 9 -26 20 -39 17 -21 19 -21 13 -4 -3 11 -12 29 -20
40 -10 16 -13 16 -13 3z"/>
<path d="M3812 2078 c-12 -12 1 -48 18 -48 12 0 13 30 2 47 -6 10 -11 10 -20
1z"/>
<path d="M4043 2075 c-3 -9 -3 -18 -1 -21 3 -3 8 4 11 16 6 23 -1 27 -10 5z"/>
<path d="M4190 2018 c-22 -23 -18 -38 9 -38 16 0 51 29 51 42 0 17 -43 14 -60
-4z"/>
<path d="M3916 2016 c7 -18 53 -50 61 -42 7 6 -43 56 -56 56 -6 0 -8 -6 -5
-14z"/>
<path d="M4465 1968 c9 -16 24 -28 33 -28 8 0 13 1 11 3 -2 1 -17 13 -33 27
l-29 25 18 -27z"/>
<path d="M4292 1954 c5 -25 35 -41 49 -27 18 18 3 43 -26 43 -19 0 -26 -5 -23
-16z"/>
<path d="M5037 1926 c-27 -6 -46 -13 -43 -16 2 -3 -23 -3 -57 -1 -44 2 -56 6
-42 12 19 7 19 8 -3 8 -12 1 -25 -6 -28 -14 -4 -8 -12 -15 -18 -15 -7 0 -27
-11 -45 -25 l-34 -24 39 6 c21 3 56 12 78 20 43 15 137 18 100 3 -12 -5 -43
-12 -70 -16 -47 -8 -44 -9 51 -16 55 -3 112 -4 128 -1 25 4 27 8 27 49 0 49
-1 50 -83 30z"/>
<path d="M4735 1900 c3 -5 8 -10 11 -10 2 0 4 5 4 10 0 6 -5 10 -11 10 -5 0
-7 -4 -4 -10z"/>
<path d="M4400 1880 c-13 -8 -13 -10 2 -10 9 0 20 5 23 10 8 13 -5 13 -25 0z"/>
<path d="M4440 1881 c0 -13 12 -20 26 -14 20 8 17 19 -6 20 -11 1 -20 -2 -20
-6z"/>
<path d="M5031 1764 c-47 -9 -94 -9 -182 -1 -66 5 -123 7 -127 3 -10 -10 18
-24 37 -19 16 4 138 -17 196 -33 l20 -6 -20 16 c-19 15 -18 15 13 5 26 -9 31
-14 20 -21 -9 -6 -6 -7 9 -3 15 4 41 -3 73 -19 l50 -25 0 53 c0 34 -5 55 -12
58 -7 2 -42 -1 -77 -8z"/>
<path d="M3630 1740 c0 -3 11 -10 24 -16 20 -9 26 -9 30 3 9 23 8 23 -24 21
-16 -1 -30 -5 -30 -8z"/>
<path d="M4595 1635 c-29 -14 -29 -14 30 -13 33 0 74 4 90 8 l30 8 -31 1 c-17
0 -44 3 -60 6 -16 2 -42 -2 -59 -10z"/>
<path d="M4155 1604 c177 -57 193 -65 231 -110 39 -49 91 -77 228 -124 66 -23
100 -44 201 -124 143 -113 238 -216 254 -272 12 -44 15 -104 4 -104 -4 0 -21
15 -38 33 -72 74 -123 105 -265 163 -19 8 -47 21 -62 29 -17 8 1 -14 45 -58
40 -40 138 -148 217 -241 l145 -168 3 452 c1 249 0 456 -4 459 -3 3 -90 9
-192 13 -103 3 -205 11 -227 18 -49 14 -179 39 -183 35 -2 -2 18 -11 45 -20
26 -9 83 -30 126 -46 43 -16 93 -29 112 -27 38 2 51 -5 40 -22 -4 -6 -20 -9
-38 -6 -25 5 -27 4 -12 -3 11 -5 30 -10 42 -10 12 -1 64 -21 116 -45 73 -34
98 -50 109 -74 15 -30 14 -77 -3 -88 -4 -2 -45 13 -90 35 -44 22 -106 45 -137
52 -61 12 -217 76 -321 130 -63 33 -64 34 -35 40 16 4 21 7 10 8 -10 0 -46 14
-80 30 -34 16 -86 31 -116 35 -54 6 -72 8 -140 20 -24 5 -20 2 15 -10z"/>
<path d="M856 1483 c-6 -14 -5 -15 5 -6 7 7 10 15 7 18 -3 3 -9 -2 -12 -12z"/>
<path d="M837 1436 c-3 -8 -2 -18 3 -21 13 -8 24 15 12 27 -6 6 -11 4 -15 -6z"/>
<path d="M872 1410 c0 -14 2 -19 5 -12 2 6 2 18 0 25 -3 6 -5 1 -5 -13z"/>
<path d="M3780 1420 c-9 -6 -10 -10 -3 -10 6 0 15 5 18 10 8 12 4 12 -15 0z"/>
<path d="M902 1387 c10 -8 16 -16 13 -19 -3 -2 2 -5 10 -5 19 0 10 14 -18 27
-20 10 -20 10 -5 -3z"/>
<path d="M773 1372 c-8 -5 -9 -13 -3 -22 6 -10 13 -11 19 -5 13 13 -1 36 -16
27z"/>
<path d="M691 1347 c16 -31 18 -32 16 -8 -1 11 -7 23 -14 26 -11 4 -11 0 -2
-18z"/>
<path d="M4420 1335 c33 -34 54 -43 64 -27 2 4 -19 20 -47 35 l-51 27 34 -35z"/>
<path d="M750 1341 c0 -6 4 -13 10 -16 6 -3 7 1 4 9 -7 18 -14 21 -14 7z"/>
<path d="M878 1333 c7 -3 16 -2 19 1 4 3 -2 6 -13 5 -11 0 -14 -3 -6 -6z"/>
<path d="M684 1299 c-4 -7 -3 -9 4 -5 5 3 13 0 15 -6 4 -9 6 -10 6 -1 1 17
-16 25 -25 12z"/>
<path d="M690 1116 c0 -2 8 -10 18 -17 15 -13 16 -12 3 4 -13 16 -21 21 -21
13z"/>
<path d="M3825 1109 c-4 -6 -5 -12 -2 -15 2 -3 7 2 10 11 7 17 1 20 -8 4z"/>
<path d="M927 1069 c7 -7 15 -10 18 -7 3 3 -2 9 -12 12 -14 6 -15 5 -6 -5z"/>
<path d="M995 1040 c-3 -6 1 -7 9 -4 18 7 21 14 7 14 -6 0 -13 -4 -16 -10z"/>
<path d="M1068 1013 c7 -3 16 -2 19 1 4 3 -2 6 -13 5 -11 0 -14 -3 -6 -6z"/>
<path d="M3779 973 c-13 -16 -12 -17 4 -4 9 7 17 15 17 17 0 8 -8 3 -21 -13z"/>
<path d="M3497 956 c-4 -10 1 -12 14 -9 23 6 24 9 5 16 -8 3 -17 0 -19 -7z"/>
<path d="M3680 959 c0 -5 5 -7 10 -4 6 3 10 8 10 11 0 2 -4 4 -10 4 -5 0 -10
-5 -10 -11z"/>
<path d="M1000 928 c0 -4 4 -8 9 -8 6 0 12 4 15 8 3 5 -1 9 -9 9 -8 0 -15 -4
-15 -9z"/>
<path d="M3740 931 c0 -7 -4 -9 -10 -6 -5 3 -10 -2 -10 -12 0 -16 1 -16 17 0
9 9 14 20 10 23 -4 4 -7 2 -7 -5z"/>
<path d="M3680 908 c0 -4 7 -8 15 -8 8 0 15 4 15 8 0 5 -7 9 -15 9 -8 0 -15
-4 -15 -9z"/>
<path d="M3750 888 c0 -12 3 -18 7 -14 11 10 12 36 2 36 -5 0 -9 -10 -9 -22z"/>
<path d="M3704 865 c-7 -30 10 -56 20 -30 3 9 2 13 -4 10 -6 -3 -10 -1 -10 4
0 6 7 11 16 11 17 0 15 21 -4 28 -6 2 -14 -8 -18 -23z"/>
<path d="M978 843 c7 -3 16 -2 19 1 4 3 -2 6 -13 5 -11 0 -14 -3 -6 -6z"/>
<path d="M3786 835 c-8 -22 -8 -22 9 -22 17 0 18 6 6 25 -7 11 -10 10 -15 -3z"/>
<path d="M3755 830 c-3 -5 -1 -10 4 -10 6 0 11 5 11 10 0 6 -2 10 -4 10 -3 0
-8 -4 -11 -10z"/>
<path d="M1158 823 c7 -3 16 -2 19 1 4 3 -2 6 -13 5 -11 0 -14 -3 -6 -6z"/>
<path d="M3680 810 c0 -6 -5 -8 -12 -4 -7 4 -8 3 -4 -5 4 -6 12 -8 18 -5 7 5
9 1 5 -9 -3 -10 -2 -17 3 -17 6 0 10 5 10 12 0 9 3 9 12 0 16 -16 33 -15 19 1
-6 8 -10 16 -8 18 1 2 0 3 -2 2 -2 -1 -12 2 -22 8 -13 7 -19 6 -19 -1z"/>
<path d="M1912 771 c-11 -7 -11 -9 2 -14 10 -4 16 -1 16 8 0 17 -1 17 -18 6z"/>
<path d="M1853 740 c-1 -11 2 -20 5 -20 4 0 8 9 9 20 1 11 -2 20 -5 20 -4 0
-8 -9 -9 -20z"/>
<path d="M3730 740 c22 -22 40 -26 40 -9 0 5 -4 8 -9 5 -5 -3 -14 1 -21 9 -7
8 -16 15 -21 15 -5 0 0 -9 11 -20z"/>
<path d="M3760 756 c0 -2 7 -7 16 -10 8 -3 12 -2 9 4 -6 10 -25 14 -25 6z"/>
<path d="M3877 749 c7 -7 15 -10 18 -7 3 3 -2 9 -12 12 -14 6 -15 5 -6 -5z"/>
<path d="M1880 740 c0 -5 5 -10 10 -10 6 0 10 5 10 10 0 6 -4 10 -10 10 -5 0
-10 -4 -10 -10z"/>
<path d="M3560 744 c0 -9 40 -23 44 -15 3 5 -5 11 -19 13 -14 3 -25 4 -25 2z"/>
<path d="M3710 730 c0 -5 5 -10 10 -10 6 0 10 5 10 10 0 6 -4 10 -10 10 -5 0
-10 -4 -10 -10z"/>
<path d="M3639 716 c11 -13 9 -15 -18 -11 -19 2 -29 0 -25 -6 3 -6 9 -8 12 -5
3 3 11 1 19 -5 7 -6 13 -8 13 -4 0 5 8 1 18 -8 17 -15 18 -15 18 8 0 15 -8 27
-25 35 -21 10 -23 9 -12 -4z"/>
<path d="M3810 720 c8 -5 20 -10 25 -10 6 0 3 5 -5 10 -8 5 -19 10 -25 10 -5
0 -3 -5 5 -10z"/>
<path d="M3693 706 c0 -6 9 -13 19 -13 10 -1 18 0 18 2 0 2 -8 9 -18 14 -14 7
-19 6 -19 -3z"/>
<path d="M3765 700 c-3 -5 -1 -10 4 -10 6 0 11 5 11 10 0 6 -2 10 -4 10 -3 0
-8 -4 -11 -10z"/>
<path d="M1763 680 c-1 -11 2 -22 8 -25 5 -4 8 3 6 14 -4 28 -12 34 -14 11z"/>
<path d="M1720 686 c0 -2 8 -10 18 -17 15 -13 16 -12 3 4 -13 16 -21 21 -21
13z"/>
<path d="M3740 669 c0 -5 -5 -7 -12 -3 -6 4 -8 3 -5 -3 3 -5 16 -9 29 -7 13 1
26 3 31 3 4 1 7 6 7 12 0 8 -5 8 -15 -1 -10 -9 -15 -9 -15 -1 0 6 -4 11 -10
11 -5 0 -10 -5 -10 -11z"/>
<path d="M1578 663 c6 -2 18 -2 25 0 6 3 1 5 -13 5 -14 0 -19 -2 -12 -5z"/>
<path d="M3621 653 c0 -10 3 -13 5 -6 3 7 12 9 21 6 11 -4 14 -2 9 5 -11 18
-36 14 -35 -5z"/>
<path d="M3850 661 c0 -6 4 -13 10 -16 6 -3 7 1 4 9 -7 18 -14 21 -14 7z"/>
<path d="M3700 650 c0 -7 -7 -9 -17 -5 -14 5 -15 3 -6 -5 7 -8 17 -9 28 -2 12
6 14 11 6 16 -6 4 -11 2 -11 -4z"/>
<path d="M703 635 c0 -8 4 -12 9 -9 5 3 6 10 3 15 -9 13 -12 11 -12 -6z"/>
<path d="M1217 639 c7 -7 15 -10 18 -7 3 3 -2 9 -12 12 -14 6 -15 5 -6 -5z"/>
<path d="M1501 646 c10 -8 89 -13 83 -5 -3 5 -24 9 -46 9 -23 0 -39 -2 -37 -4z"/>
<path d="M3795 630 c3 -5 8 -10 11 -10 2 0 4 5 4 10 0 6 -5 10 -11 10 -5 0 -7
-4 -4 -10z"/>
<path d="M3715 621 c-3 -5 -1 -12 4 -15 5 -3 11 1 15 9 6 16 -9 21 -19 6z"/>
<path d="M1573 605 c0 -8 3 -13 5 -10 3 3 17 -5 31 -17 21 -19 20 -17 -3 10
-35 37 -33 36 -33 17z"/>
<path d="M1815 610 c3 -5 8 -10 11 -10 2 0 4 5 4 10 0 6 -5 10 -11 10 -5 0 -7
-4 -4 -10z"/>
<path d="M3600 617 c0 -2 11 -13 25 -25 14 -12 25 -18 25 -13 0 5 -11 16 -25
25 -14 9 -25 15 -25 13z"/>
<path d="M3820 616 c0 -2 7 -7 16 -10 8 -3 12 -2 9 4 -6 10 -25 14 -25 6z"/>
<path d="M3800 600 c0 -5 5 -10 11 -10 5 0 7 5 4 10 -3 6 -8 10 -11 10 -2 0
-4 -4 -4 -10z"/>
<path d="M3680 581 c0 -4 10 -12 23 -20 19 -13 21 -12 10 1 -7 8 -11 17 -8 20
3 2 -2 5 -10 5 -8 0 -15 -3 -15 -6z"/>
<path d="M3870 575 c12 -14 7 -19 -13 -16 -5 1 -6 -3 -3 -8 4 -5 3 -11 -1 -13
-5 -1 2 -13 15 -25 12 -12 22 -18 22 -14 0 5 -7 14 -15 21 -13 11 -13 14 0 27
19 19 19 29 -1 37 -14 5 -15 4 -4 -9z"/>
<path d="M1575 569 c-9 -13 20 -46 40 -46 17 0 20 13 5 22 -5 3 -10 1 -10 -6
0 -8 -4 -8 -15 1 -9 7 -14 19 -11 27 6 16 0 17 -9 2z"/>
<path d="M3610 571 c0 -7 -5 -9 -12 -5 -7 5 -8 3 -3 -5 5 -9 10 -10 18 -2 6 6
8 14 4 18 -4 3 -7 1 -7 -6z"/>
<path d="M3760 565 c7 -9 15 -13 17 -11 7 7 -7 26 -19 26 -6 0 -6 -6 2 -15z"/>
<path d="M3796 572 c-2 -4 4 -9 15 -9 10 -1 19 2 19 8 0 11 -27 12 -34 1z"/>
<path d="M3958 573 c7 -3 16 -2 19 1 4 3 -2 6 -13 5 -11 0 -14 -3 -6 -6z"/>
<path d="M1238 563 c6 -2 18 -2 25 0 6 3 1 5 -13 5 -14 0 -19 -2 -12 -5z"/>
<path d="M3655 550 c-4 -6 1 -7 11 -3 13 5 15 3 9 -7 -5 -9 -4 -11 4 -6 6 4 9
12 6 17 -8 12 -22 12 -30 -1z"/>
<path d="M1920 542 c0 -5 7 -15 15 -22 8 -7 15 -8 15 -2 0 5 -7 15 -15 22 -8
7 -15 8 -15 2z"/>
<path d="M3740 530 c7 -14 6 -19 -4 -22 -12 -2 -12 -5 1 -17 12 -11 15 -10 20
7 5 20 43 39 43 21 0 -4 6 -6 13 -3 8 3 14 11 14 18 0 15 -29 17 -38 3 -4 -5
-13 -6 -20 -1 -27 16 -39 14 -29 -6z"/>
<path d="M1395 520 c3 -5 8 -10 11 -10 2 0 4 5 4 10 0 6 -5 10 -11 10 -5 0 -7
-4 -4 -10z"/>
<path d="M1488 523 c7 -3 16 -2 19 1 4 3 -2 6 -13 5 -11 0 -14 -3 -6 -6z"/>
<path d="M3601 522 c0 -7 -5 -11 -9 -8 -4 2 -8 -4 -8 -14 0 -13 4 -16 12 -9 8
6 14 4 18 -7 5 -13 9 -14 21 -4 17 14 9 34 -10 26 -8 -3 -16 3 -18 12 -3 9 -5
11 -6 4z m39 -26 c0 -3 -4 -8 -10 -11 -5 -3 -10 -1 -10 4 0 6 5 11 10 11 6 0
10 -2 10 -4z"/>
<path d="M3660 510 c6 -11 13 -20 16 -20 2 0 0 9 -6 20 -6 11 -13 20 -16 20
-2 0 0 -9 6 -20z"/>
<path d="M3696 515 c-3 -8 -1 -15 4 -15 6 0 10 7 10 15 0 8 -2 15 -4 15 -2 0
-6 -7 -10 -15z"/>
<path d="M1545 510 c27 -12 43 -12 25 0 -8 5 -22 9 -30 9 -10 0 -8 -3 5 -9z"/>
<path d="M1603 494 c24 -29 21 -41 -4 -18 -22 19 -22 19 -8 -3 16 -26 53 -28
38 -2 -5 10 -6 19 -1 22 4 2 2 3 -4 1 -6 -1 -18 3 -25 9 -7 7 -6 3 4 -9z"/>
<path d="M3847 502 c-3 -4 8 -17 26 -27 18 -10 25 -12 17 -4 -8 8 -20 20 -27
27 -6 7 -14 9 -16 4z"/>
<path d="M3926 495 c-9 -26 -7 -32 5 -12 6 10 9 21 6 23 -2 3 -7 -2 -11 -11z"/>
<path d="M3970 502 c0 -6 9 -12 20 -15 11 -3 20 -3 20 -1 0 2 -9 8 -20 14 -11
6 -20 7 -20 2z"/>
<path d="M1470 480 c0 -5 5 -10 11 -10 5 0 7 5 4 10 -3 6 -8 10 -11 10 -2 0
-4 -4 -4 -10z"/>
<path d="M1660 479 c0 -5 -5 -7 -11 -3 -8 4 -8 0 0 -15 14 -25 23 -28 14 -4
-4 11 -3 14 5 9 8 -5 10 -2 6 8 -7 18 -14 21 -14 5z"/>
<path d="M1712 474 c-8 -9 -9 -15 -1 -20 8 -4 7 -9 -2 -16 -11 -6 -9 -8 6 -6
11 2 19 -2 18 -9 -2 -7 4 -10 13 -6 10 4 14 1 12 -8 -1 -8 0 -14 4 -14 3 0 19
-11 35 -25 15 -13 20 -16 10 -5 -16 18 -16 20 5 32 13 8 16 12 8 11 -15 -3
-20 2 -20 23 0 5 4 8 9 5 5 -3 9 6 9 19 0 14 -4 28 -9 31 -5 3 -6 -1 -4 -8 4
-9 -2 -14 -15 -14 -11 0 -19 5 -16 11 6 16 -47 14 -62 -1z m49 -11 c1 -10 1
-22 0 -28 -1 -5 5 -2 13 8 9 12 16 14 21 8 3 -6 2 -11 -4 -11 -5 0 -8 -10 -7
-23 2 -14 -2 -24 -10 -24 -6 0 -10 6 -8 12 3 7 -6 20 -20 29 -15 9 -26 22 -26
28 0 6 10 3 23 -8 12 -10 16 -12 10 -4 -16 17 -17 30 -3 30 6 0 11 -8 11 -17z"/>
<path d="M1833 470 c1 -27 23 -60 40 -60 6 0 2 7 -9 15 -10 8 -14 15 -7 15 16
0 27 -20 28 -48 0 -26 2 -27 34 -17 l25 8 -22 17 c-24 19 -30 36 -9 24 7 -4 9
-3 4 2 -5 5 -12 9 -15 10 -26 3 -42 18 -37 35 4 11 2 19 -5 19 -6 0 -8 -4 -5
-10 3 -5 2 -10 -4 -10 -5 0 -11 6 -14 13 -3 6 -5 1 -4 -13z"/>
<path d="M3761 471 c-8 -14 -6 -22 9 -36 16 -14 18 -15 16 -1 -1 8 -5 18 -8
22 -4 3 -4 12 -1 20 8 21 -5 17 -16 -5z"/>
<path d="M3799 473 c-13 -16 -12 -17 4 -4 9 7 17 15 17 17 0 8 -8 3 -21 -13z"/>
<path d="M3697 473 c-3 -5 -1 -17 4 -28 4 -11 8 -14 8 -7 1 7 5 11 11 7 5 -3
7 -12 4 -19 -3 -8 0 -17 5 -21 6 -3 9 -11 6 -16 -3 -5 1 -6 10 -3 14 6 14 9 2
23 -8 9 -12 21 -10 28 2 6 -5 14 -17 18 -11 3 -18 11 -15 16 4 5 4 9 1 9 -3 0
-7 -3 -9 -7z"/>
<path d="M3939 463 c-13 -16 -12 -17 4 -4 16 13 21 21 13 21 -2 0 -10 -8 -17
-17z"/>
<path d="M3840 450 c0 -5 6 -7 14 -4 20 8 29 -12 13 -28 -11 -11 -11 -16 4
-31 11 -12 19 -15 24 -8 3 6 2 11 -2 11 -5 0 -9 9 -10 21 -1 15 2 19 13 15 10
-4 14 -1 11 6 -2 7 -10 12 -16 11 -6 -2 -11 2 -11 7 0 6 -9 10 -20 10 -11 0
-20 -4 -20 -10z"/>
<path d="M1406 438 c3 -5 10 -6 15 -3 13 9 11 12 -6 12 -8 0 -12 -4 -9 -9z"/>
<path d="M3647 435 c-4 -8 -3 -16 1 -19 4 -3 9 4 9 15 2 23 -3 25 -10 4z"/>
<path d="M1534 422 c14 -16 23 -19 36 -12 10 5 20 7 24 5 3 -3 3 -2 0 3 -3 4
-15 7 -27 7 -12 1 -29 5 -37 10 -9 5 -8 1 4 -13z"/>
<path d="M3925 430 c3 -5 11 -10 16 -10 6 0 7 5 4 10 -3 6 -11 10 -16 10 -6 0
-7 -4 -4 -10z"/>
<path d="M525 421 c-3 -5 -2 -12 3 -15 5 -3 9 1 9 9 0 17 -3 19 -12 6z"/>
<path d="M1683 404 c9 -11 17 -24 17 -29 0 -4 -8 -1 -17 6 -15 11 -16 11 -5
-1 17 -20 15 -35 -3 -20 -8 7 -16 22 -16 34 -1 18 -2 18 -6 3 -3 -10 3 -27 12
-37 9 -10 14 -23 11 -28 -3 -5 2 -16 12 -23 15 -13 16 -12 3 4 -9 12 -10 17
-2 17 7 0 10 4 7 9 -6 10 21 24 33 17 16 -10 8 34 -10 50 -13 12 -19 13 -19 4
0 -10 -4 -10 -17 1 -17 13 -17 13 0 -7z m42 -15 c11 -17 -1 -21 -15 -4 -8 9
-8 15 -2 15 6 0 14 -5 17 -11z"/>
<path d="M3676 411 c-4 -5 -2 -12 4 -16 6 -4 8 -10 6 -14 -3 -4 5 -8 17 -8 20
-2 20 -1 4 8 -9 6 -15 14 -12 19 3 5 1 11 -4 14 -5 4 -12 2 -15 -3z"/>
<path d="M3810 404 c0 -14 3 -14 15 -4 8 7 15 14 15 16 0 2 -7 4 -15 4 -8 0
-15 -7 -15 -16z"/>
<path d="M3775 400 c3 -5 8 -10 11 -10 2 0 4 5 4 10 0 6 -5 10 -11 10 -5 0 -7
-4 -4 -10z"/>
<path d="M3937 399 c7 -7 15 -10 18 -7 3 3 -2 9 -12 12 -14 6 -15 5 -6 -5z"/>
<path d="M1555 369 c17 -19 32 -31 33 -27 2 5 11 3 20 -4 14 -11 14 -9 0 8
-21 24 -23 38 -5 28 8 -5 8 -3 -2 9 -16 20 -33 13 -24 -11 5 -12 -1 -10 -22 8
l-29 25 29 -36z"/>
<path d="M1619 387 c8 -9 11 -20 8 -24 -4 -3 -2 -14 4 -24 10 -19 1 -25 -26
-19 -5 1 -2 -7 8 -18 23 -25 22 -39 -2 -18 -13 12 -21 14 -26 6 -5 -8 -13 -6
-26 6 -10 9 -19 14 -19 9 0 -4 -6 -3 -13 3 -10 8 -13 6 -13 -8 0 -18 15 -23
26 -8 8 10 62 -41 55 -51 -2 -5 6 -8 18 -7 15 1 21 7 19 19 -2 9 3 17 9 17 7
0 5 8 -7 21 -18 20 -18 20 9 15 l27 -5 -19 25 c-11 14 -18 31 -15 38 3 7 -3
19 -13 27 -16 13 -17 12 -4 -4z m7 -144 c-7 -7 -26 7 -26 19 0 6 6 6 15 -2 9
-7 13 -15 11 -17z"/>
<path d="M3910 390 c0 -5 5 -10 11 -10 5 0 7 5 4 10 -3 6 -8 10 -11 10 -2 0
-4 -4 -4 -10z"/>
<path d="M3970 381 c0 -6 4 -13 10 -16 6 -3 7 1 4 9 -7 18 -14 21 -14 7z"/>
<path d="M3788 368 c10 -13 10 -17 0 -21 -9 -4 -9 -6 -1 -6 20 -2 24 16 5 30
-15 13 -16 12 -4 -3z"/>
<path d="M3826 363 c11 -8 18 -19 16 -24 -1 -6 2 -8 8 -4 13 8 -8 42 -28 42
-11 0 -10 -4 4 -14z"/>
<path d="M3858 368 c7 -7 12 -24 12 -39 0 -15 5 -31 10 -34 6 -3 10 -10 10
-16 0 -13 -34 -11 -50 4 -12 10 -12 9 -2 -4 21 -28 49 -29 61 -2 7 14 16 22
24 18 6 -4 -1 5 -18 19 -16 14 -26 28 -22 32 4 4 7 2 7 -4 0 -7 4 -12 10 -12
18 0 0 25 -27 38 -20 9 -24 9 -15 0z"/>
<path d="M3940 371 c0 -5 5 -13 10 -16 6 -3 10 -2 10 4 0 5 -4 13 -10 16 -5 3
-10 2 -10 -4z"/>
<path d="M1480 366 c0 -2 8 -10 18 -17 15 -13 16 -12 3 4 -13 16 -21 21 -21
13z"/>
<path d="M3735 349 c-4 -6 -5 -12 -2 -15 2 -3 7 2 10 11 7 17 1 20 -8 4z"/>
<path d="M4035 350 c3 -5 8 -10 11 -10 2 0 4 5 4 10 0 6 -5 10 -11 10 -5 0 -7
-4 -4 -10z"/>
<path d="M3997 343 c-4 -3 -7 -13 -7 -21 0 -18 13 -7 16 13 2 17 1 18 -9 8z"/>
<path d="M1479 338 c-1 -2 -2 -20 -3 -41 -2 -34 0 -37 11 -21 16 21 16 31 3
39 -6 4 -8 11 -5 16 4 5 4 9 1 9 -3 0 -7 -1 -7 -2z"/>
<path d="M1710 336 c0 -2 7 -7 16 -10 8 -3 12 -2 9 4 -6 10 -25 14 -25 6z"/>
<path d="M3941 331 c-9 -6 -10 -11 -2 -15 6 -4 11 -2 11 5 0 8 5 7 18 -2 15
-13 16 -12 3 4 -7 9 -14 17 -15 17 0 0 -7 -4 -15 -9z"/>
<path d="M3754 305 c1 -8 6 -18 11 -22 4 -4 5 -3 2 4 -4 6 -2 13 5 15 8 3 6 6
-4 10 -10 4 -15 2 -14 -7z"/>
<path d="M1390 298 c0 -2 9 -11 20 -21 11 -9 20 -13 20 -7 0 5 -9 14 -20 20
-11 6 -20 9 -20 8z"/>
<path d="M3945 274 c0 -13 6 -26 13 -29 7 -3 10 0 7 6 -4 5 -1 18 6 27 7 9 9
14 5 10 -5 -4 -14 -4 -20 1 -7 6 -11 2 -11 -15z"/>
<path d="M1660 284 c0 -6 7 -19 15 -30 8 -10 14 -14 14 -9 0 6 -6 19 -14 29
-8 11 -15 15 -15 10z"/>
<path d="M1033 265 c0 -8 4 -12 9 -9 5 3 6 10 3 15 -9 13 -12 11 -12 -6z"/>
<path d="M3780 270 c0 -5 5 -10 11 -10 5 0 7 5 4 10 -3 6 -8 10 -11 10 -2 0
-4 -4 -4 -10z"/>
<path d="M3815 260 c3 -17 1 -21 -13 -16 -10 3 -8 -1 6 -10 12 -9 22 -23 22
-30 0 -8 4 -14 8 -14 4 0 8 9 8 19 0 11 -5 19 -10 18 -6 -1 -10 8 -11 20 0 12
-3 25 -7 29 -4 3 -5 -3 -3 -16z"/>
<path d="M3983 272 c-15 -9 -6 -22 29 -45 17 -10 25 -23 22 -31 -4 -10 1 -14
15 -13 26 2 32 18 15 42 -12 16 -23 20 -68 24 -4 1 -6 8 -2 16 6 17 5 18 -11
7z m73 -53 c19 -22 19 -22 -3 -10 -13 6 -23 16 -23 21 0 15 5 12 26 -11z"/>
<path d="M3904 245 c3 -23 12 -26 13 -5 1 11 -2 20 -7 20 -4 0 -7 -7 -6 -15z"/>
<path d="M1548 240 c15 -17 16 -31 1 -27 -6 1 -14 -5 -16 -13 -4 -12 -3 -12 5
-2 5 8 13 13 18 12 17 -3 14 17 -3 31 -15 11 -16 11 -5 -1z"/>
<path d="M3871 233 c14 -17 24 -63 13 -63 -3 0 -9 10 -14 23 -8 19 -9 17 -6
-13 1 -19 8 -45 14 -56 6 -12 8 -25 4 -29 -4 -5 -2 -5 5 -1 7 4 10 13 6 21 -3
9 -1 21 4 28 20 25 4 91 -25 102 -14 5 -14 4 -1 -12z m29 -75 c0 -4 -4 -8 -9
-8 -6 0 -12 4 -15 8 -3 5 1 9 9 9 8 0 15 -4 15 -9z"/>
<path d="M1137 219 c7 -7 15 -10 18 -7 3 3 -2 9 -12 12 -14 6 -15 5 -6 -5z"/>
<path d="M1426 222 c-3 -5 1 -9 9 -9 8 0 12 4 9 9 -3 4 -7 8 -9 8 -2 0 -6 -4
-9 -8z"/>
<path d="M1485 220 c3 -5 8 -10 11 -10 2 0 4 5 4 10 0 6 -5 10 -11 10 -5 0 -7
-4 -4 -10z"/>
<path d="M3705 221 c-3 -5 -2 -12 3 -15 5 -3 9 1 9 9 0 17 -3 19 -12 6z"/>
<path d="M3775 211 c-3 -5 -1 -12 5 -16 6 -4 8 -10 5 -15 -3 -4 3 -14 12 -21
12 -10 14 -10 9 -1 -4 6 -2 12 3 12 6 0 11 5 11 10 0 6 -6 10 -14 10 -8 0 -18
4 -21 10 -3 6 1 7 9 4 9 -3 16 -1 16 5 0 13 -27 15 -35 2z"/>
<path d="M3936 211 c-4 -5 3 -7 14 -4 23 6 26 13 6 13 -8 0 -17 -4 -20 -9z"/>
<path d="M3980 188 c0 -7 4 -19 9 -27 7 -10 9 -7 8 12 -2 26 -17 39 -17 15z"/>
<path d="M3935 180 c3 -6 2 -10 -4 -10 -7 0 -7 -8 1 -25 6 -13 15 -22 21 -18
5 3 4 9 -3 13 -7 4 -11 13 -8 20 3 9 9 8 21 -4 17 -17 23 -11 9 10 -9 14 -45
27 -37 14z"/>
<path d="M1545 169 c-4 -6 -4 -13 -1 -16 3 -4 6 -1 6 7 0 10 4 10 18 -1 15
-13 16 -12 3 4 -16 20 -18 20 -26 6z"/>
<path d="M3750 176 c0 -2 8 -10 18 -17 15 -13 16 -12 3 4 -13 16 -21 21 -21
13z"/>
<path d="M4012 169 c2 -6 14 -16 26 -20 29 -11 28 -5 -4 16 -17 11 -25 12 -22
4z"/>
<path d="M1400 166 c0 -2 8 -10 18 -17 15 -13 16 -12 3 4 -13 16 -21 21 -21
13z"/>
<path d="M3840 140 c6 -11 12 -20 14 -20 2 0 2 9 -1 20 -3 11 -9 20 -15 20 -5
0 -4 -9 2 -20z"/>
<path d="M4070 150 c0 -5 5 -10 11 -10 5 0 7 5 4 10 -3 6 -8 10 -11 10 -2 0
-4 -4 -4 -10z"/>
<path d="M4100 156 c0 -2 7 -7 16 -10 8 -3 12 -2 9 4 -6 10 -25 14 -25 6z"/>
<path d="M1490 133 c0 -6 8 -17 18 -24 16 -13 16 -13 2 6 -8 11 -16 22 -17 24
-2 2 -3 0 -3 -6z"/>
<path d="M1545 104 c3 -25 1 -33 -8 -27 -23 14 -36 11 -34 -9 1 -17 3 -17 13
-3 10 13 12 14 17 1 3 -8 15 -14 25 -13 18 1 18 3 6 23 -16 23 -9 58 10 47 6
-3 7 -2 3 2 -4 5 -14 10 -22 11 -11 2 -14 -6 -10 -32z"/>
<path d="M3900 130 c0 -5 5 -10 10 -10 6 0 10 5 10 10 0 6 -4 10 -10 10 -5 0
-10 -4 -10 -10z"/>
<path d="M4053 118 c20 -18 37 -16 37 5 0 7 -4 6 -10 -3 -8 -12 -10 -12 -10
-1 0 8 -3 11 -7 8 -3 -4 -11 -3 -18 1 -6 4 -2 -1 8 -10z"/>
<path d="M1118 123 c7 -3 16 -2 19 1 4 3 -2 6 -13 5 -11 0 -14 -3 -6 -6z"/>
<path d="M3814 112 c-9 -5 -8 -11 2 -20 8 -7 14 -11 14 -8 0 2 3 11 6 20 6 17
-3 21 -22 8z"/>
<path d="M1470 91 c0 -6 4 -13 10 -16 6 -3 7 1 4 9 -7 18 -14 21 -14 7z"/>
<path d="M3980 87 c0 -9 4 -18 9 -21 5 -4 8 1 7 9 -3 21 -16 31 -16 12z"/>
<path d="M1380 86 c0 -2 7 -7 16 -10 8 -3 12 -2 9 4 -6 10 -25 14 -25 6z"/>
<path d="M3897 76 c-3 -8 -3 -17 1 -21 7 -6 8 -10 11 -36 0 -5 6 -7 12 -3 8 4
7 9 -2 15 -12 7 -11 9 1 10 8 1 18 1 22 0 3 0 5 7 4 17 -2 9 -7 17 -12 17 -5
0 -14 4 -20 8 -7 4 -14 1 -17 -7z"/>
<path d="M4095 80 c3 -5 8 -10 11 -10 2 0 4 5 4 10 0 6 -5 10 -11 10 -5 0 -7
-4 -4 -10z"/>
<path d="M1470 56 c0 -2 8 -10 18 -17 15 -13 16 -12 3 4 -13 16 -21 21 -21 13z"/>
<path d="M4016 38 c5 -7 2 -9 -8 -6 -8 4 -15 0 -15 -7 0 -10 5 -11 19 -4 16 9
17 29 2 29 -3 0 -2 -5 2 -12z"/>
<path d="M4075 40 c-3 -5 -5 -10 -3 -11 33 -8 38 -7 27 7 -14 17 -16 17 -24 4z"/>
<path d="M1396 27 c3 -10 9 -15 12 -12 3 3 0 11 -7 18 -10 9 -11 8 -5 -6z"/>
<path d="M3795 30 c-6 -10 1 -14 19 -11 4 1 15 -4 24 -11 12 -10 14 -10 8 0
-4 6 -3 12 3 12 5 0 12 -6 14 -12 4 -8 6 -9 6 -2 1 6 -6 17 -14 24 -11 9 -15
9 -15 1 0 -8 -5 -9 -19 -1 -13 7 -22 7 -26 0z"/>
<path d="M3960 30 c0 -5 5 -10 11 -10 5 0 7 5 4 10 -3 6 -8 10 -11 10 -2 0 -4
-4 -4 -10z"/>
<path d="M1426 17 c3 -10 9 -15 12 -12 3 3 0 11 -7 18 -10 9 -11 8 -5 -6z"/>
<path d="M1476 17 c3 -10 9 -15 12 -12 3 3 0 11 -7 18 -10 9 -11 8 -5 -6z"/>
<path d="M2090 15 c0 -8 4 -15 10 -15 5 0 7 7 4 15 -4 8 -8 15 -10 15 -2 0 -4
-7 -4 -15z"/>
<path d="M3936 15 c-4 -11 1 -15 21 -15 14 0 24 1 22 3 -2 1 -11 8 -20 15 -14
10 -18 10 -23 -3z"/>
</g>
</svg>
